<?xml version="1.0" encoding="utf-8" standalone="no"?>
<!DOCTYPE svg PUBLIC "-//W3C//DTD SVG 1.1//EN"
  "http://www.w3.org/Graphics/SVG/1.1/DTD/svg11.dtd">
<svg xmlns:xlink="http://www.w3.org/1999/xlink" width="536.769531pt" height="243.058344pt" viewBox="0 0 536.769531 243.058344" xmlns="http://www.w3.org/2000/svg" version="1.1">
 <metadata>
  <rdf:RDF xmlns:dc="http://purl.org/dc/elements/1.1/" xmlns:cc="http://creativecommons.org/ns#" xmlns:rdf="http://www.w3.org/1999/02/22-rdf-syntax-ns#">
   <cc:Work>
    <dc:type rdf:resource="http://purl.org/dc/dcmitype/StillImage"/>
    <dc:date>2025-06-10T17:05:04.369748</dc:date>
    <dc:format>image/svg+xml</dc:format>
    <dc:creator>
     <cc:Agent>
      <dc:title>Matplotlib v3.9.2, https://matplotlib.org/</dc:title>
     </cc:Agent>
    </dc:creator>
   </cc:Work>
  </rdf:RDF>
 </metadata>
 <defs>
  <style type="text/css">*{stroke-linejoin: round; stroke-linecap: butt}</style>
 </defs>
 <g id="figure_1">
  <g id="patch_1">
   <path d="M 0 243.058344 
L 536.769531 243.058344 
L 536.769531 0 
L 0 0 
z
" style="fill: #ffffff"/>
  </g>
  <g id="axes_1">
   <g id="patch_2">
    <path d="M 55.269531 184.213813 
L 529.569531 184.213813 
L 529.569531 17.893812 
L 55.269531 17.893812 
z
" style="fill: #ffffff"/>
   </g>
   <g id="patch_3">
    <path d="M 59.919531 184.213813 
L 73.619705 184.213813 
L 73.619705 184.213813 
L 59.919531 184.213813 
z
" clip-path="url(#p640f84f22f)" style="fill: #fdbf6f"/>
   </g>
   <g id="patch_4">
    <path d="M 76.037382 184.213813 
L 89.737556 184.213813 
L 89.737556 184.213813 
L 76.037382 184.213813 
z
" clip-path="url(#p640f84f22f)" style="fill: #fdbf6f"/>
   </g>
   <g id="patch_5">
    <path d="M 92.155233 184.213813 
L 105.855406 184.213813 
L 105.855406 184.213813 
L 92.155233 184.213813 
z
" clip-path="url(#p640f84f22f)" style="fill: #fdbf6f"/>
   </g>
   <g id="patch_6">
    <path d="M 108.273084 184.213813 
L 121.973257 184.213813 
L 121.973257 184.213813 
L 108.273084 184.213813 
z
" clip-path="url(#p640f84f22f)" style="fill: #fdbf6f"/>
   </g>
   <g id="patch_7">
    <path d="M 124.390935 184.213813 
L 138.091108 184.213813 
L 138.091108 184.213813 
L 124.390935 184.213813 
z
" clip-path="url(#p640f84f22f)" style="fill: #fdbf6f"/>
   </g>
   <g id="patch_8">
    <path d="M 140.508786 184.213813 
L 154.208959 184.213813 
L 154.208959 184.213813 
L 140.508786 184.213813 
z
" clip-path="url(#p640f84f22f)" style="fill: #fdbf6f"/>
   </g>
   <g id="patch_9">
    <path d="M 156.626637 184.213813 
L 170.32681 184.213813 
L 170.32681 184.213813 
L 156.626637 184.213813 
z
" clip-path="url(#p640f84f22f)" style="fill: #fdbf6f"/>
   </g>
   <g id="patch_10">
    <path d="M 172.744488 184.213813 
L 186.444661 184.213813 
L 186.444661 184.213813 
L 172.744488 184.213813 
z
" clip-path="url(#p640f84f22f)" style="fill: #fdbf6f"/>
   </g>
   <g id="patch_11">
    <path d="M 188.862339 184.213813 
L 202.562512 184.213813 
L 202.562512 184.213813 
L 188.862339 184.213813 
z
" clip-path="url(#p640f84f22f)" style="fill: #fdbf6f"/>
   </g>
   <g id="patch_12">
    <path d="M 204.98019 184.213813 
L 218.680363 184.213813 
L 218.680363 184.213813 
L 204.98019 184.213813 
z
" clip-path="url(#p640f84f22f)" style="fill: #fdbf6f"/>
   </g>
   <g id="patch_13">
    <path d="M 221.098041 184.213813 
L 234.798214 184.213813 
L 234.798214 184.213813 
L 221.098041 184.213813 
z
" clip-path="url(#p640f84f22f)" style="fill: #fdbf6f"/>
   </g>
   <g id="patch_14">
    <path d="M 237.215892 184.213813 
L 250.916065 184.213813 
L 250.916065 184.213813 
L 237.215892 184.213813 
z
" clip-path="url(#p640f84f22f)" style="fill: #fdbf6f"/>
   </g>
   <g id="patch_15">
    <path d="M 253.333743 184.213813 
L 267.033916 184.213813 
L 267.033916 184.213813 
L 253.333743 184.213813 
z
" clip-path="url(#p640f84f22f)" style="fill: #fdbf6f"/>
   </g>
   <g id="patch_16">
    <path d="M 269.451594 184.213813 
L 283.151767 184.213813 
L 283.151767 184.213813 
L 269.451594 184.213813 
z
" clip-path="url(#p640f84f22f)" style="fill: #fdbf6f"/>
   </g>
   <g id="patch_17">
    <path d="M 285.569445 184.213813 
L 299.269618 184.213813 
L 299.269618 184.213813 
L 285.569445 184.213813 
z
" clip-path="url(#p640f84f22f)" style="fill: #fdbf6f"/>
   </g>
   <g id="patch_18">
    <path d="M 301.687296 184.213813 
L 315.387469 184.213813 
L 315.387469 184.213813 
L 301.687296 184.213813 
z
" clip-path="url(#p640f84f22f)" style="fill: #fdbf6f"/>
   </g>
   <g id="patch_19">
    <path d="M 317.805147 184.213813 
L 331.50532 184.213813 
L 331.50532 184.213813 
L 317.805147 184.213813 
z
" clip-path="url(#p640f84f22f)" style="fill: #fdbf6f"/>
   </g>
   <g id="patch_20">
    <path d="M 333.922997 184.213813 
L 347.623171 184.213813 
L 347.623171 184.213813 
L 333.922997 184.213813 
z
" clip-path="url(#p640f84f22f)" style="fill: #fdbf6f"/>
   </g>
   <g id="patch_21">
    <path d="M 350.040848 184.213813 
L 363.741022 184.213813 
L 363.741022 184.213813 
L 350.040848 184.213813 
z
" clip-path="url(#p640f84f22f)" style="fill: #fdbf6f"/>
   </g>
   <g id="patch_22">
    <path d="M 366.158699 184.213813 
L 379.858873 184.213813 
L 379.858873 184.213813 
L 366.158699 184.213813 
z
" clip-path="url(#p640f84f22f)" style="fill: #fdbf6f"/>
   </g>
   <g id="patch_23">
    <path d="M 382.27655 184.213813 
L 395.976724 184.213813 
L 395.976724 184.213813 
L 382.27655 184.213813 
z
" clip-path="url(#p640f84f22f)" style="fill: #fdbf6f"/>
   </g>
   <g id="patch_24">
    <path d="M 398.394401 184.213813 
L 412.094575 184.213813 
L 412.094575 184.213813 
L 398.394401 184.213813 
z
" clip-path="url(#p640f84f22f)" style="fill: #fdbf6f"/>
   </g>
   <g id="patch_25">
    <path d="M 414.512252 184.213813 
L 428.212426 184.213813 
L 428.212426 167.581813 
L 414.512252 167.581813 
z
" clip-path="url(#p640f84f22f)" style="fill: #fdbf6f"/>
   </g>
   <g id="patch_26">
    <path d="M 430.630103 184.213813 
L 444.330276 184.213813 
L 444.330276 181.837813 
L 430.630103 181.837813 
z
" clip-path="url(#p640f84f22f)" style="fill: #fdbf6f"/>
   </g>
   <g id="patch_27">
    <path d="M 446.747954 184.213813 
L 460.448127 184.213813 
L 460.448127 166.393813 
L 446.747954 166.393813 
z
" clip-path="url(#p640f84f22f)" style="fill: #fdbf6f"/>
   </g>
   <g id="patch_28">
    <path d="M 462.865805 184.213813 
L 476.565978 184.213813 
L 476.565978 179.461813 
L 462.865805 179.461813 
z
" clip-path="url(#p640f84f22f)" style="fill: #fdbf6f"/>
   </g>
   <g id="patch_29">
    <path d="M 478.983656 184.213813 
L 492.683829 184.213813 
L 492.683829 183.025813 
L 478.983656 183.025813 
z
" clip-path="url(#p640f84f22f)" style="fill: #fdbf6f"/>
   </g>
   <g id="patch_30">
    <path d="M 495.101507 184.213813 
L 508.80168 184.213813 
L 508.80168 154.513813 
L 495.101507 154.513813 
z
" clip-path="url(#p640f84f22f)" style="fill: #fdbf6f"/>
   </g>
   <g id="patch_31">
    <path d="M 511.219358 184.213813 
L 524.919531 184.213813 
L 524.919531 175.897813 
L 511.219358 175.897813 
z
" clip-path="url(#p640f84f22f)" style="fill: #fdbf6f"/>
   </g>
   <g id="patch_32">
    <path d="M 59.919531 184.213813 
L 73.619705 184.213813 
L 73.619705 174.709813 
L 59.919531 174.709813 
z
" clip-path="url(#p640f84f22f)" style="fill: #e53e24"/>
   </g>
   <g id="patch_33">
    <path d="M 76.037382 184.213813 
L 89.737556 184.213813 
L 89.737556 141.445813 
L 76.037382 141.445813 
z
" clip-path="url(#p640f84f22f)" style="fill: #e53e24"/>
   </g>
   <g id="patch_34">
    <path d="M 92.155233 184.213813 
L 105.855406 184.213813 
L 105.855406 161.641813 
L 92.155233 161.641813 
z
" clip-path="url(#p640f84f22f)" style="fill: #e53e24"/>
   </g>
   <g id="patch_35">
    <path d="M 108.273084 184.213813 
L 121.973257 184.213813 
L 121.973257 152.137812 
L 108.273084 152.137812 
z
" clip-path="url(#p640f84f22f)" style="fill: #e53e24"/>
   </g>
   <g id="patch_36">
    <path d="M 124.390935 184.213813 
L 138.091108 184.213813 
L 138.091108 161.641813 
L 124.390935 161.641813 
z
" clip-path="url(#p640f84f22f)" style="fill: #e53e24"/>
   </g>
   <g id="patch_37">
    <path d="M 140.508786 184.213813 
L 154.208959 184.213813 
L 154.208959 175.897813 
L 140.508786 175.897813 
z
" clip-path="url(#p640f84f22f)" style="fill: #e53e24"/>
   </g>
   <g id="patch_38">
    <path d="M 156.626637 184.213813 
L 170.32681 184.213813 
L 170.32681 160.453813 
L 156.626637 160.453813 
z
" clip-path="url(#p640f84f22f)" style="fill: #e53e24"/>
   </g>
   <g id="patch_39">
    <path d="M 172.744488 184.213813 
L 186.444661 184.213813 
L 186.444661 161.641813 
L 172.744488 161.641813 
z
" clip-path="url(#p640f84f22f)" style="fill: #e53e24"/>
   </g>
   <g id="patch_40">
    <path d="M 188.862339 184.213813 
L 202.562512 184.213813 
L 202.562512 161.641813 
L 188.862339 161.641813 
z
" clip-path="url(#p640f84f22f)" style="fill: #e53e24"/>
   </g>
   <g id="patch_41">
    <path d="M 204.98019 184.213813 
L 218.680363 184.213813 
L 218.680363 161.641813 
L 204.98019 161.641813 
z
" clip-path="url(#p640f84f22f)" style="fill: #e53e24"/>
   </g>
   <g id="patch_42">
    <path d="M 221.098041 184.213813 
L 234.798214 184.213813 
L 234.798214 181.837813 
L 221.098041 181.837813 
z
" clip-path="url(#p640f84f22f)" style="fill: #e53e24"/>
   </g>
   <g id="patch_43">
    <path d="M 237.215892 184.213813 
L 250.916065 184.213813 
L 250.916065 184.213813 
L 237.215892 184.213813 
z
" clip-path="url(#p640f84f22f)" style="fill: #e53e24"/>
   </g>
   <g id="patch_44">
    <path d="M 253.333743 184.213813 
L 267.033916 184.213813 
L 267.033916 143.821813 
L 253.333743 143.821813 
z
" clip-path="url(#p640f84f22f)" style="fill: #e53e24"/>
   </g>
   <g id="patch_45">
    <path d="M 269.451594 184.213813 
L 283.151767 184.213813 
L 283.151767 178.273813 
L 269.451594 178.273813 
z
" clip-path="url(#p640f84f22f)" style="fill: #e53e24"/>
   </g>
   <g id="patch_46">
    <path d="M 285.569445 184.213813 
L 299.269618 184.213813 
L 299.269618 142.633813 
L 285.569445 142.633813 
z
" clip-path="url(#p640f84f22f)" style="fill: #e53e24"/>
   </g>
   <g id="patch_47">
    <path d="M 301.687296 184.213813 
L 315.387469 184.213813 
L 315.387469 167.581813 
L 301.687296 167.581813 
z
" clip-path="url(#p640f84f22f)" style="fill: #e53e24"/>
   </g>
   <g id="patch_48">
    <path d="M 317.805147 184.213813 
L 331.50532 184.213813 
L 331.50532 165.205813 
L 317.805147 165.205813 
z
" clip-path="url(#p640f84f22f)" style="fill: #e53e24"/>
   </g>
   <g id="patch_49">
    <path d="M 333.922997 184.213813 
L 347.623171 184.213813 
L 347.623171 154.513813 
L 333.922997 154.513813 
z
" clip-path="url(#p640f84f22f)" style="fill: #e53e24"/>
   </g>
   <g id="patch_50">
    <path d="M 350.040848 184.213813 
L 363.741022 184.213813 
L 363.741022 161.641813 
L 350.040848 161.641813 
z
" clip-path="url(#p640f84f22f)" style="fill: #e53e24"/>
   </g>
   <g id="patch_51">
    <path d="M 366.158699 184.213813 
L 379.858873 184.213813 
L 379.858873 166.393813 
L 366.158699 166.393813 
z
" clip-path="url(#p640f84f22f)" style="fill: #e53e24"/>
   </g>
   <g id="patch_52">
    <path d="M 382.27655 184.213813 
L 395.976724 184.213813 
L 395.976724 155.701813 
L 382.27655 155.701813 
z
" clip-path="url(#p640f84f22f)" style="fill: #e53e24"/>
   </g>
   <g id="patch_53">
    <path d="M 398.394401 184.213813 
L 412.094575 184.213813 
L 412.094575 148.573813 
L 398.394401 148.573813 
z
" clip-path="url(#p640f84f22f)" style="fill: #e53e24"/>
   </g>
   <g id="patch_54">
    <path d="M 414.512252 167.581813 
L 428.212426 167.581813 
L 428.212426 159.265813 
L 414.512252 159.265813 
z
" clip-path="url(#p640f84f22f)" style="fill: #e53e24"/>
   </g>
   <g id="patch_55">
    <path d="M 430.630103 181.837813 
L 444.330276 181.837813 
L 444.330276 142.633813 
L 430.630103 142.633813 
z
" clip-path="url(#p640f84f22f)" style="fill: #e53e24"/>
   </g>
   <g id="patch_56">
    <path d="M 446.747954 166.393813 
L 460.448127 166.393813 
L 460.448127 145.009813 
L 446.747954 145.009813 
z
" clip-path="url(#p640f84f22f)" style="fill: #e53e24"/>
   </g>
   <g id="patch_57">
    <path d="M 462.865805 179.461813 
L 476.565978 179.461813 
L 476.565978 141.445812 
L 462.865805 141.445812 
z
" clip-path="url(#p640f84f22f)" style="fill: #e53e24"/>
   </g>
   <g id="patch_58">
    <path d="M 478.983656 183.025813 
L 492.683829 183.025813 
L 492.683829 161.641812 
L 478.983656 161.641812 
z
" clip-path="url(#p640f84f22f)" style="fill: #e53e24"/>
   </g>
   <g id="patch_59">
    <path d="M 495.101507 154.513813 
L 508.80168 154.513813 
L 508.80168 133.129812 
L 495.101507 133.129812 
z
" clip-path="url(#p640f84f22f)" style="fill: #e53e24"/>
   </g>
   <g id="patch_60">
    <path d="M 511.219358 175.897813 
L 524.919531 175.897813 
L 524.919531 150.949813 
L 511.219358 150.949813 
z
" clip-path="url(#p640f84f22f)" style="fill: #e53e24"/>
   </g>
   <g id="patch_61">
    <path d="M 59.919531 174.709812 
L 73.619705 174.709812 
L 73.619705 162.829813 
L 59.919531 162.829813 
z
" clip-path="url(#p640f84f22f)" style="fill: #54aead"/>
   </g>
   <g id="patch_62">
    <path d="M 76.037382 141.445812 
L 89.737556 141.445812 
L 89.737556 111.745812 
L 76.037382 111.745812 
z
" clip-path="url(#p640f84f22f)" style="fill: #54aead"/>
   </g>
   <g id="patch_63">
    <path d="M 92.155233 161.641813 
L 105.855406 161.641813 
L 105.855406 140.257812 
L 92.155233 140.257812 
z
" clip-path="url(#p640f84f22f)" style="fill: #54aead"/>
   </g>
   <g id="patch_64">
    <path d="M 108.273084 152.137812 
L 121.973257 152.137812 
L 121.973257 73.729812 
L 108.273084 73.729812 
z
" clip-path="url(#p640f84f22f)" style="fill: #54aead"/>
   </g>
   <g id="patch_65">
    <path d="M 124.390935 161.641813 
L 138.091108 161.641813 
L 138.091108 142.633813 
L 124.390935 142.633813 
z
" clip-path="url(#p640f84f22f)" style="fill: #54aead"/>
   </g>
   <g id="patch_66">
    <path d="M 140.508786 175.897813 
L 154.208959 175.897813 
L 154.208959 152.137812 
L 140.508786 152.137812 
z
" clip-path="url(#p640f84f22f)" style="fill: #54aead"/>
   </g>
   <g id="patch_67">
    <path d="M 156.626637 160.453812 
L 170.32681 160.453812 
L 170.32681 121.249812 
L 156.626637 121.249812 
z
" clip-path="url(#p640f84f22f)" style="fill: #54aead"/>
   </g>
   <g id="patch_68">
    <path d="M 172.744488 161.641813 
L 186.444661 161.641813 
L 186.444661 145.009813 
L 172.744488 145.009813 
z
" clip-path="url(#p640f84f22f)" style="fill: #54aead"/>
   </g>
   <g id="patch_69">
    <path d="M 188.862339 161.641813 
L 202.562512 161.641813 
L 202.562512 161.641813 
L 188.862339 161.641813 
z
" clip-path="url(#p640f84f22f)" style="fill: #54aead"/>
   </g>
   <g id="patch_70">
    <path d="M 204.98019 161.641813 
L 218.680363 161.641813 
L 218.680363 91.549813 
L 204.98019 91.549813 
z
" clip-path="url(#p640f84f22f)" style="fill: #54aead"/>
   </g>
   <g id="patch_71">
    <path d="M 221.098041 181.837813 
L 234.798214 181.837813 
L 234.798214 152.137812 
L 221.098041 152.137812 
z
" clip-path="url(#p640f84f22f)" style="fill: #54aead"/>
   </g>
   <g id="patch_72">
    <path d="M 237.215892 184.213813 
L 250.916065 184.213813 
L 250.916065 161.641813 
L 237.215892 161.641813 
z
" clip-path="url(#p640f84f22f)" style="fill: #54aead"/>
   </g>
   <g id="patch_73">
    <path d="M 253.333743 143.821813 
L 267.033916 143.821813 
L 267.033916 82.045813 
L 253.333743 82.045813 
z
" clip-path="url(#p640f84f22f)" style="fill: #54aead"/>
   </g>
   <g id="patch_74">
    <path d="M 269.451594 178.273813 
L 283.151767 178.273813 
L 283.151767 166.393813 
L 269.451594 166.393813 
z
" clip-path="url(#p640f84f22f)" style="fill: #54aead"/>
   </g>
   <g id="patch_75">
    <path d="M 285.569445 142.633813 
L 299.269618 142.633813 
L 299.269618 118.873812 
L 285.569445 118.873812 
z
" clip-path="url(#p640f84f22f)" style="fill: #54aead"/>
   </g>
   <g id="patch_76">
    <path d="M 301.687296 167.581813 
L 315.387469 167.581813 
L 315.387469 124.813813 
L 301.687296 124.813813 
z
" clip-path="url(#p640f84f22f)" style="fill: #54aead"/>
   </g>
   <g id="patch_77">
    <path d="M 317.805147 165.205813 
L 331.50532 165.205813 
L 331.50532 116.497813 
L 317.805147 116.497813 
z
" clip-path="url(#p640f84f22f)" style="fill: #54aead"/>
   </g>
   <g id="patch_78">
    <path d="M 333.922997 154.513813 
L 347.623171 154.513813 
L 347.623171 136.693813 
L 333.922997 136.693813 
z
" clip-path="url(#p640f84f22f)" style="fill: #54aead"/>
   </g>
   <g id="patch_79">
    <path d="M 350.040848 161.641813 
L 363.741022 161.641813 
L 363.741022 118.873813 
L 350.040848 118.873813 
z
" clip-path="url(#p640f84f22f)" style="fill: #54aead"/>
   </g>
   <g id="patch_80">
    <path d="M 366.158699 166.393813 
L 379.858873 166.393813 
L 379.858873 110.557813 
L 366.158699 110.557813 
z
" clip-path="url(#p640f84f22f)" style="fill: #54aead"/>
   </g>
   <g id="patch_81">
    <path d="M 382.27655 155.701813 
L 395.976724 155.701813 
L 395.976724 95.113813 
L 382.27655 95.113813 
z
" clip-path="url(#p640f84f22f)" style="fill: #54aead"/>
   </g>
   <g id="patch_82">
    <path d="M 398.394401 148.573813 
L 412.094575 148.573813 
L 412.094575 97.489812 
L 398.394401 97.489812 
z
" clip-path="url(#p640f84f22f)" style="fill: #54aead"/>
   </g>
   <g id="patch_83">
    <path d="M 414.512252 159.265813 
L 428.212426 159.265813 
L 428.212426 137.881812 
L 414.512252 137.881812 
z
" clip-path="url(#p640f84f22f)" style="fill: #54aead"/>
   </g>
   <g id="patch_84">
    <path d="M 430.630103 142.633813 
L 444.330276 142.633813 
L 444.330276 101.053812 
L 430.630103 101.053812 
z
" clip-path="url(#p640f84f22f)" style="fill: #54aead"/>
   </g>
   <g id="patch_85">
    <path d="M 446.747954 145.009813 
L 460.448127 145.009813 
L 460.448127 82.045813 
L 446.747954 82.045813 
z
" clip-path="url(#p640f84f22f)" style="fill: #54aead"/>
   </g>
   <g id="patch_86">
    <path d="M 462.865805 141.445812 
L 476.565978 141.445812 
L 476.565978 126.001812 
L 462.865805 126.001812 
z
" clip-path="url(#p640f84f22f)" style="fill: #54aead"/>
   </g>
   <g id="patch_87">
    <path d="M 478.983656 161.641813 
L 492.683829 161.641813 
L 492.683829 130.753813 
L 478.983656 130.753813 
z
" clip-path="url(#p640f84f22f)" style="fill: #54aead"/>
   </g>
   <g id="patch_88">
    <path d="M 495.101507 133.129813 
L 508.80168 133.129813 
L 508.80168 103.429813 
L 495.101507 103.429813 
z
" clip-path="url(#p640f84f22f)" style="fill: #54aead"/>
   </g>
   <g id="patch_89">
    <path d="M 511.219358 150.949813 
L 524.919531 150.949813 
L 524.919531 127.189813 
L 511.219358 127.189813 
z
" clip-path="url(#p640f84f22f)" style="fill: #54aead"/>
   </g>
   <g id="patch_90">
    <path d="M 59.919531 162.829813 
L 73.619705 162.829813 
L 73.619705 143.821812 
L 59.919531 143.821812 
z
" clip-path="url(#p640f84f22f)" style="fill: #ffff33"/>
   </g>
   <g id="patch_91">
    <path d="M 76.037382 111.745812 
L 89.737556 111.745812 
L 89.737556 97.489812 
L 76.037382 97.489812 
z
" clip-path="url(#p640f84f22f)" style="fill: #ffff33"/>
   </g>
   <g id="patch_92">
    <path d="M 92.155233 140.257812 
L 105.855406 140.257812 
L 105.855406 128.377813 
L 92.155233 128.377813 
z
" clip-path="url(#p640f84f22f)" style="fill: #ffff33"/>
   </g>
   <g id="patch_93">
    <path d="M 108.273084 73.729813 
L 121.973257 73.729813 
L 121.973257 53.533813 
L 108.273084 53.533813 
z
" clip-path="url(#p640f84f22f)" style="fill: #ffff33"/>
   </g>
   <g id="patch_94">
    <path d="M 124.390935 142.633813 
L 138.091108 142.633813 
L 138.091108 98.677813 
L 124.390935 98.677813 
z
" clip-path="url(#p640f84f22f)" style="fill: #ffff33"/>
   </g>
   <g id="patch_95">
    <path d="M 140.508786 152.137812 
L 154.208959 152.137812 
L 154.208959 90.361812 
L 140.508786 90.361812 
z
" clip-path="url(#p640f84f22f)" style="fill: #ffff33"/>
   </g>
   <g id="patch_96">
    <path d="M 156.626637 121.249813 
L 170.32681 121.249813 
L 170.32681 85.609813 
L 156.626637 85.609813 
z
" clip-path="url(#p640f84f22f)" style="fill: #ffff33"/>
   </g>
   <g id="patch_97">
    <path d="M 172.744488 145.009813 
L 186.444661 145.009813 
L 186.444661 130.753813 
L 172.744488 130.753813 
z
" clip-path="url(#p640f84f22f)" style="fill: #ffff33"/>
   </g>
   <g id="patch_98">
    <path d="M 188.862339 161.641813 
L 202.562512 161.641813 
L 202.562512 148.573813 
L 188.862339 148.573813 
z
" clip-path="url(#p640f84f22f)" style="fill: #ffff33"/>
   </g>
   <g id="patch_99">
    <path d="M 204.98019 91.549813 
L 218.680363 91.549813 
L 218.680363 73.729812 
L 204.98019 73.729812 
z
" clip-path="url(#p640f84f22f)" style="fill: #ffff33"/>
   </g>
   <g id="patch_100">
    <path d="M 221.098041 152.137812 
L 234.798214 152.137812 
L 234.798214 152.137812 
L 221.098041 152.137812 
z
" clip-path="url(#p640f84f22f)" style="fill: #ffff33"/>
   </g>
   <g id="patch_101">
    <path d="M 237.215892 161.641813 
L 250.916065 161.641813 
L 250.916065 127.189813 
L 237.215892 127.189813 
z
" clip-path="url(#p640f84f22f)" style="fill: #ffff33"/>
   </g>
   <g id="patch_102">
    <path d="M 253.333743 82.045812 
L 267.033916 82.045812 
L 267.033916 51.157812 
L 253.333743 51.157812 
z
" clip-path="url(#p640f84f22f)" style="fill: #ffff33"/>
   </g>
   <g id="patch_103">
    <path d="M 269.451594 166.393813 
L 283.151767 166.393813 
L 283.151767 161.641813 
L 269.451594 161.641813 
z
" clip-path="url(#p640f84f22f)" style="fill: #ffff33"/>
   </g>
   <g id="patch_104">
    <path d="M 285.569445 118.873813 
L 299.269618 118.873813 
L 299.269618 91.549813 
L 285.569445 91.549813 
z
" clip-path="url(#p640f84f22f)" style="fill: #ffff33"/>
   </g>
   <g id="patch_105">
    <path d="M 301.687296 124.813813 
L 315.387469 124.813813 
L 315.387469 104.617813 
L 301.687296 104.617813 
z
" clip-path="url(#p640f84f22f)" style="fill: #ffff33"/>
   </g>
   <g id="patch_106">
    <path d="M 317.805147 116.497813 
L 331.50532 116.497813 
L 331.50532 78.481813 
L 317.805147 78.481813 
z
" clip-path="url(#p640f84f22f)" style="fill: #ffff33"/>
   </g>
   <g id="patch_107">
    <path d="M 333.922997 136.693813 
L 347.623171 136.693813 
L 347.623171 136.693813 
L 333.922997 136.693813 
z
" clip-path="url(#p640f84f22f)" style="fill: #ffff33"/>
   </g>
   <g id="patch_108">
    <path d="M 350.040848 118.873813 
L 363.741022 118.873813 
L 363.741022 84.421813 
L 350.040848 84.421813 
z
" clip-path="url(#p640f84f22f)" style="fill: #ffff33"/>
   </g>
   <g id="patch_109">
    <path d="M 366.158699 110.557813 
L 379.858873 110.557813 
L 379.858873 98.677813 
L 366.158699 98.677813 
z
" clip-path="url(#p640f84f22f)" style="fill: #ffff33"/>
   </g>
   <g id="patch_110">
    <path d="M 382.27655 95.113812 
L 395.976724 95.113812 
L 395.976724 72.541812 
L 382.27655 72.541812 
z
" clip-path="url(#p640f84f22f)" style="fill: #ffff33"/>
   </g>
   <g id="patch_111">
    <path d="M 398.394401 97.489812 
L 412.094575 97.489812 
L 412.094575 92.737813 
L 398.394401 92.737813 
z
" clip-path="url(#p640f84f22f)" style="fill: #ffff33"/>
   </g>
   <g id="patch_112">
    <path d="M 414.512252 137.881812 
L 428.212426 137.881812 
L 428.212426 135.505812 
L 414.512252 135.505812 
z
" clip-path="url(#p640f84f22f)" style="fill: #ffff33"/>
   </g>
   <g id="patch_113">
    <path d="M 430.630103 101.053812 
L 444.330276 101.053812 
L 444.330276 86.797812 
L 430.630103 86.797812 
z
" clip-path="url(#p640f84f22f)" style="fill: #ffff33"/>
   </g>
   <g id="patch_114">
    <path d="M 446.747954 82.045812 
L 460.448127 82.045812 
L 460.448127 82.045812 
L 446.747954 82.045812 
z
" clip-path="url(#p640f84f22f)" style="fill: #ffff33"/>
   </g>
   <g id="patch_115">
    <path d="M 462.865805 126.001812 
L 476.565978 126.001812 
L 476.565978 99.865813 
L 462.865805 99.865813 
z
" clip-path="url(#p640f84f22f)" style="fill: #ffff33"/>
   </g>
   <g id="patch_116">
    <path d="M 478.983656 130.753813 
L 492.683829 130.753813 
L 492.683829 109.369813 
L 478.983656 109.369813 
z
" clip-path="url(#p640f84f22f)" style="fill: #ffff33"/>
   </g>
   <g id="patch_117">
    <path d="M 495.101507 103.429812 
L 508.80168 103.429812 
L 508.80168 84.421812 
L 495.101507 84.421812 
z
" clip-path="url(#p640f84f22f)" style="fill: #ffff33"/>
   </g>
   <g id="patch_118">
    <path d="M 511.219358 127.189813 
L 524.919531 127.189813 
L 524.919531 105.805813 
L 511.219358 105.805813 
z
" clip-path="url(#p640f84f22f)" style="fill: #ffff33"/>
   </g>
   <g id="patch_119">
    <path d="M 59.919531 143.821813 
L 73.619705 143.821813 
L 73.619705 136.693813 
L 59.919531 136.693813 
z
" clip-path="url(#p640f84f22f)" style="fill: #bfe5a0"/>
   </g>
   <g id="patch_120">
    <path d="M 76.037382 97.489812 
L 89.737556 97.489812 
L 89.737556 85.609813 
L 76.037382 85.609813 
z
" clip-path="url(#p640f84f22f)" style="fill: #bfe5a0"/>
   </g>
   <g id="patch_121">
    <path d="M 92.155233 128.377813 
L 105.855406 128.377813 
L 105.855406 123.625813 
L 92.155233 123.625813 
z
" clip-path="url(#p640f84f22f)" style="fill: #bfe5a0"/>
   </g>
   <g id="patch_122">
    <path d="M 108.273084 53.533813 
L 121.973257 53.533813 
L 121.973257 41.653813 
L 108.273084 41.653813 
z
" clip-path="url(#p640f84f22f)" style="fill: #bfe5a0"/>
   </g>
   <g id="patch_123">
    <path d="M 124.390935 98.677812 
L 138.091108 98.677812 
L 138.091108 90.361812 
L 124.390935 90.361812 
z
" clip-path="url(#p640f84f22f)" style="fill: #bfe5a0"/>
   </g>
   <g id="patch_124">
    <path d="M 140.508786 90.361812 
L 154.208959 90.361812 
L 154.208959 66.601812 
L 140.508786 66.601812 
z
" clip-path="url(#p640f84f22f)" style="fill: #bfe5a0"/>
   </g>
   <g id="patch_125">
    <path d="M 156.626637 85.609813 
L 170.32681 85.609813 
L 170.32681 84.421813 
L 156.626637 84.421813 
z
" clip-path="url(#p640f84f22f)" style="fill: #bfe5a0"/>
   </g>
   <g id="patch_126">
    <path d="M 172.744488 130.753813 
L 186.444661 130.753813 
L 186.444661 130.753813 
L 172.744488 130.753813 
z
" clip-path="url(#p640f84f22f)" style="fill: #bfe5a0"/>
   </g>
   <g id="patch_127">
    <path d="M 188.862339 148.573813 
L 202.562512 148.573813 
L 202.562512 135.505812 
L 188.862339 135.505812 
z
" clip-path="url(#p640f84f22f)" style="fill: #bfe5a0"/>
   </g>
   <g id="patch_128">
    <path d="M 204.98019 73.729813 
L 218.680363 73.729813 
L 218.680363 55.909813 
L 204.98019 55.909813 
z
" clip-path="url(#p640f84f22f)" style="fill: #bfe5a0"/>
   </g>
   <g id="patch_129">
    <path d="M 221.098041 152.137812 
L 234.798214 152.137812 
L 234.798214 147.385812 
L 221.098041 147.385812 
z
" clip-path="url(#p640f84f22f)" style="fill: #bfe5a0"/>
   </g>
   <g id="patch_130">
    <path d="M 237.215892 127.189813 
L 250.916065 127.189813 
L 250.916065 122.437813 
L 237.215892 122.437813 
z
" clip-path="url(#p640f84f22f)" style="fill: #bfe5a0"/>
   </g>
   <g id="patch_131">
    <path d="M 253.333743 51.157813 
L 267.033916 51.157813 
L 267.033916 28.585813 
L 253.333743 28.585813 
z
" clip-path="url(#p640f84f22f)" style="fill: #bfe5a0"/>
   </g>
   <g id="patch_132">
    <path d="M 269.451594 161.641813 
L 283.151767 161.641813 
L 283.151767 148.573813 
L 269.451594 148.573813 
z
" clip-path="url(#p640f84f22f)" style="fill: #bfe5a0"/>
   </g>
   <g id="patch_133">
    <path d="M 285.569445 91.549813 
L 299.269618 91.549813 
L 299.269618 68.977812 
L 285.569445 68.977812 
z
" clip-path="url(#p640f84f22f)" style="fill: #bfe5a0"/>
   </g>
   <g id="patch_134">
    <path d="M 301.687296 104.617812 
L 315.387469 104.617812 
L 315.387469 104.617812 
L 301.687296 104.617812 
z
" clip-path="url(#p640f84f22f)" style="fill: #bfe5a0"/>
   </g>
   <g id="patch_135">
    <path d="M 317.805147 78.481812 
L 331.50532 78.481812 
L 331.50532 64.225812 
L 317.805147 64.225812 
z
" clip-path="url(#p640f84f22f)" style="fill: #bfe5a0"/>
   </g>
   <g id="patch_136">
    <path d="M 333.922997 136.693813 
L 347.623171 136.693813 
L 347.623171 136.693813 
L 333.922997 136.693813 
z
" clip-path="url(#p640f84f22f)" style="fill: #bfe5a0"/>
   </g>
   <g id="patch_137">
    <path d="M 350.040848 84.421812 
L 363.741022 84.421812 
L 363.741022 77.293812 
L 350.040848 77.293812 
z
" clip-path="url(#p640f84f22f)" style="fill: #bfe5a0"/>
   </g>
   <g id="patch_138">
    <path d="M 366.158699 98.677812 
L 379.858873 98.677812 
L 379.858873 79.669812 
L 366.158699 79.669812 
z
" clip-path="url(#p640f84f22f)" style="fill: #bfe5a0"/>
   </g>
   <g id="patch_139">
    <path d="M 382.27655 72.541812 
L 395.976724 72.541812 
L 395.976724 54.721812 
L 382.27655 54.721812 
z
" clip-path="url(#p640f84f22f)" style="fill: #bfe5a0"/>
   </g>
   <g id="patch_140">
    <path d="M 398.394401 92.737812 
L 412.094575 92.737812 
L 412.094575 90.361812 
L 398.394401 90.361812 
z
" clip-path="url(#p640f84f22f)" style="fill: #bfe5a0"/>
   </g>
   <g id="patch_141">
    <path d="M 414.512252 135.505812 
L 428.212426 135.505812 
L 428.212426 124.813812 
L 414.512252 124.813812 
z
" clip-path="url(#p640f84f22f)" style="fill: #bfe5a0"/>
   </g>
   <g id="patch_142">
    <path d="M 430.630103 86.797812 
L 444.330276 86.797812 
L 444.330276 86.797812 
L 430.630103 86.797812 
z
" clip-path="url(#p640f84f22f)" style="fill: #bfe5a0"/>
   </g>
   <g id="patch_143">
    <path d="M 446.747954 82.045812 
L 460.448127 82.045812 
L 460.448127 53.533812 
L 446.747954 53.533812 
z
" clip-path="url(#p640f84f22f)" style="fill: #bfe5a0"/>
   </g>
   <g id="patch_144">
    <path d="M 462.865805 99.865813 
L 476.565978 99.865813 
L 476.565978 83.233812 
L 462.865805 83.233812 
z
" clip-path="url(#p640f84f22f)" style="fill: #bfe5a0"/>
   </g>
   <g id="patch_145">
    <path d="M 478.983656 109.369812 
L 492.683829 109.369812 
L 492.683829 77.293812 
L 478.983656 77.293812 
z
" clip-path="url(#p640f84f22f)" style="fill: #bfe5a0"/>
   </g>
   <g id="patch_146">
    <path d="M 495.101507 84.421812 
L 508.80168 84.421812 
L 508.80168 52.345812 
L 495.101507 52.345812 
z
" clip-path="url(#p640f84f22f)" style="fill: #bfe5a0"/>
   </g>
   <g id="patch_147">
    <path d="M 511.219358 105.805813 
L 524.919531 105.805813 
L 524.919531 105.805813 
L 511.219358 105.805813 
z
" clip-path="url(#p640f84f22f)" style="fill: #bfe5a0"/>
   </g>
   <g id="patch_148">
    <path d="M 59.919531 136.693813 
L 73.619705 136.693813 
L 73.619705 136.693813 
L 59.919531 136.693813 
z
" clip-path="url(#p640f84f22f)" style="fill: #0a2463"/>
   </g>
   <g id="patch_149">
    <path d="M 76.037382 85.609813 
L 89.737556 85.609813 
L 89.737556 85.609813 
L 76.037382 85.609813 
z
" clip-path="url(#p640f84f22f)" style="fill: #0a2463"/>
   </g>
   <g id="patch_150">
    <path d="M 92.155233 123.625812 
L 105.855406 123.625812 
L 105.855406 123.625812 
L 92.155233 123.625812 
z
" clip-path="url(#p640f84f22f)" style="fill: #0a2463"/>
   </g>
   <g id="patch_151">
    <path d="M 108.273084 41.653812 
L 121.973257 41.653812 
L 121.973257 41.653812 
L 108.273084 41.653812 
z
" clip-path="url(#p640f84f22f)" style="fill: #0a2463"/>
   </g>
   <g id="patch_152">
    <path d="M 124.390935 90.361812 
L 138.091108 90.361812 
L 138.091108 90.361812 
L 124.390935 90.361812 
z
" clip-path="url(#p640f84f22f)" style="fill: #0a2463"/>
   </g>
   <g id="patch_153">
    <path d="M 140.508786 66.601812 
L 154.208959 66.601812 
L 154.208959 66.601812 
L 140.508786 66.601812 
z
" clip-path="url(#p640f84f22f)" style="fill: #0a2463"/>
   </g>
   <g id="patch_154">
    <path d="M 156.626637 84.421812 
L 170.32681 84.421812 
L 170.32681 84.421812 
L 156.626637 84.421812 
z
" clip-path="url(#p640f84f22f)" style="fill: #0a2463"/>
   </g>
   <g id="patch_155">
    <path d="M 172.744488 130.753813 
L 186.444661 130.753813 
L 186.444661 130.753813 
L 172.744488 130.753813 
z
" clip-path="url(#p640f84f22f)" style="fill: #0a2463"/>
   </g>
   <g id="patch_156">
    <path d="M 188.862339 135.505812 
L 202.562512 135.505812 
L 202.562512 135.505812 
L 188.862339 135.505812 
z
" clip-path="url(#p640f84f22f)" style="fill: #0a2463"/>
   </g>
   <g id="patch_157">
    <path d="M 204.98019 55.909812 
L 218.680363 55.909812 
L 218.680363 55.909812 
L 204.98019 55.909812 
z
" clip-path="url(#p640f84f22f)" style="fill: #0a2463"/>
   </g>
   <g id="patch_158">
    <path d="M 221.098041 147.385813 
L 234.798214 147.385813 
L 234.798214 147.385813 
L 221.098041 147.385813 
z
" clip-path="url(#p640f84f22f)" style="fill: #0a2463"/>
   </g>
   <g id="patch_159">
    <path d="M 237.215892 122.437813 
L 250.916065 122.437813 
L 250.916065 122.437813 
L 237.215892 122.437813 
z
" clip-path="url(#p640f84f22f)" style="fill: #0a2463"/>
   </g>
   <g id="patch_160">
    <path d="M 253.333743 28.585813 
L 267.033916 28.585813 
L 267.033916 21.457813 
L 253.333743 21.457813 
z
" clip-path="url(#p640f84f22f)" style="fill: #0a2463"/>
   </g>
   <g id="patch_161">
    <path d="M 269.451594 148.573813 
L 283.151767 148.573813 
L 283.151767 148.573813 
L 269.451594 148.573813 
z
" clip-path="url(#p640f84f22f)" style="fill: #0a2463"/>
   </g>
   <g id="patch_162">
    <path d="M 285.569445 68.977812 
L 299.269618 68.977812 
L 299.269618 68.977812 
L 285.569445 68.977812 
z
" clip-path="url(#p640f84f22f)" style="fill: #0a2463"/>
   </g>
   <g id="patch_163">
    <path d="M 301.687296 104.617812 
L 315.387469 104.617812 
L 315.387469 104.617812 
L 301.687296 104.617812 
z
" clip-path="url(#p640f84f22f)" style="fill: #0a2463"/>
   </g>
   <g id="patch_164">
    <path d="M 317.805147 64.225812 
L 331.50532 64.225812 
L 331.50532 64.225812 
L 317.805147 64.225812 
z
" clip-path="url(#p640f84f22f)" style="fill: #0a2463"/>
   </g>
   <g id="patch_165">
    <path d="M 333.922997 136.693813 
L 347.623171 136.693813 
L 347.623171 136.693813 
L 333.922997 136.693813 
z
" clip-path="url(#p640f84f22f)" style="fill: #0a2463"/>
   </g>
   <g id="patch_166">
    <path d="M 350.040848 77.293813 
L 363.741022 77.293813 
L 363.741022 77.293813 
L 350.040848 77.293813 
z
" clip-path="url(#p640f84f22f)" style="fill: #0a2463"/>
   </g>
   <g id="patch_167">
    <path d="M 366.158699 79.669813 
L 379.858873 79.669813 
L 379.858873 79.669813 
L 366.158699 79.669813 
z
" clip-path="url(#p640f84f22f)" style="fill: #0a2463"/>
   </g>
   <g id="patch_168">
    <path d="M 382.27655 54.721812 
L 395.976724 54.721812 
L 395.976724 54.721812 
L 382.27655 54.721812 
z
" clip-path="url(#p640f84f22f)" style="fill: #0a2463"/>
   </g>
   <g id="patch_169">
    <path d="M 398.394401 90.361812 
L 412.094575 90.361812 
L 412.094575 90.361812 
L 398.394401 90.361812 
z
" clip-path="url(#p640f84f22f)" style="fill: #0a2463"/>
   </g>
   <g id="patch_170">
    <path d="M 414.512252 124.813813 
L 428.212426 124.813813 
L 428.212426 124.813813 
L 414.512252 124.813813 
z
" clip-path="url(#p640f84f22f)" style="fill: #0a2463"/>
   </g>
   <g id="patch_171">
    <path d="M 430.630103 86.797812 
L 444.330276 86.797812 
L 444.330276 86.797812 
L 430.630103 86.797812 
z
" clip-path="url(#p640f84f22f)" style="fill: #0a2463"/>
   </g>
   <g id="patch_172">
    <path d="M 446.747954 53.533813 
L 460.448127 53.533813 
L 460.448127 53.533813 
L 446.747954 53.533813 
z
" clip-path="url(#p640f84f22f)" style="fill: #0a2463"/>
   </g>
   <g id="patch_173">
    <path d="M 462.865805 83.233812 
L 476.565978 83.233812 
L 476.565978 83.233812 
L 462.865805 83.233812 
z
" clip-path="url(#p640f84f22f)" style="fill: #0a2463"/>
   </g>
   <g id="patch_174">
    <path d="M 478.983656 77.293813 
L 492.683829 77.293813 
L 492.683829 77.293813 
L 478.983656 77.293813 
z
" clip-path="url(#p640f84f22f)" style="fill: #0a2463"/>
   </g>
   <g id="patch_175">
    <path d="M 495.101507 52.345812 
L 508.80168 52.345812 
L 508.80168 52.345812 
L 495.101507 52.345812 
z
" clip-path="url(#p640f84f22f)" style="fill: #0a2463"/>
   </g>
   <g id="patch_176">
    <path d="M 511.219358 105.805813 
L 524.919531 105.805813 
L 524.919531 105.805813 
L 511.219358 105.805813 
z
" clip-path="url(#p640f84f22f)" style="fill: #0a2463"/>
   </g>
   <g id="patch_177">
    <path d="M 59.919531 136.693813 
L 73.619705 136.693813 
L 73.619705 136.693813 
L 59.919531 136.693813 
z
" clip-path="url(#p640f84f22f)" style="fill: #3b5738"/>
   </g>
   <g id="patch_178">
    <path d="M 76.037382 85.609813 
L 89.737556 85.609813 
L 89.737556 85.609813 
L 76.037382 85.609813 
z
" clip-path="url(#p640f84f22f)" style="fill: #3b5738"/>
   </g>
   <g id="patch_179">
    <path d="M 92.155233 123.625812 
L 105.855406 123.625812 
L 105.855406 123.625812 
L 92.155233 123.625812 
z
" clip-path="url(#p640f84f22f)" style="fill: #3b5738"/>
   </g>
   <g id="patch_180">
    <path d="M 108.273084 41.653812 
L 121.973257 41.653812 
L 121.973257 41.653812 
L 108.273084 41.653812 
z
" clip-path="url(#p640f84f22f)" style="fill: #3b5738"/>
   </g>
   <g id="patch_181">
    <path d="M 124.390935 90.361812 
L 138.091108 90.361812 
L 138.091108 90.361812 
L 124.390935 90.361812 
z
" clip-path="url(#p640f84f22f)" style="fill: #3b5738"/>
   </g>
   <g id="patch_182">
    <path d="M 140.508786 66.601812 
L 154.208959 66.601812 
L 154.208959 66.601812 
L 140.508786 66.601812 
z
" clip-path="url(#p640f84f22f)" style="fill: #3b5738"/>
   </g>
   <g id="patch_183">
    <path d="M 156.626637 84.421812 
L 170.32681 84.421812 
L 170.32681 84.421812 
L 156.626637 84.421812 
z
" clip-path="url(#p640f84f22f)" style="fill: #3b5738"/>
   </g>
   <g id="patch_184">
    <path d="M 172.744488 130.753813 
L 186.444661 130.753813 
L 186.444661 130.753813 
L 172.744488 130.753813 
z
" clip-path="url(#p640f84f22f)" style="fill: #3b5738"/>
   </g>
   <g id="patch_185">
    <path d="M 188.862339 135.505812 
L 202.562512 135.505812 
L 202.562512 135.505812 
L 188.862339 135.505812 
z
" clip-path="url(#p640f84f22f)" style="fill: #3b5738"/>
   </g>
   <g id="patch_186">
    <path d="M 204.98019 55.909812 
L 218.680363 55.909812 
L 218.680363 55.909812 
L 204.98019 55.909812 
z
" clip-path="url(#p640f84f22f)" style="fill: #3b5738"/>
   </g>
   <g id="patch_187">
    <path d="M 221.098041 147.385813 
L 234.798214 147.385813 
L 234.798214 147.385813 
L 221.098041 147.385813 
z
" clip-path="url(#p640f84f22f)" style="fill: #3b5738"/>
   </g>
   <g id="patch_188">
    <path d="M 237.215892 122.437813 
L 250.916065 122.437813 
L 250.916065 122.437813 
L 237.215892 122.437813 
z
" clip-path="url(#p640f84f22f)" style="fill: #3b5738"/>
   </g>
   <g id="patch_189">
    <path d="M 253.333743 21.457812 
L 267.033916 21.457812 
L 267.033916 21.457812 
L 253.333743 21.457812 
z
" clip-path="url(#p640f84f22f)" style="fill: #3b5738"/>
   </g>
   <g id="patch_190">
    <path d="M 269.451594 148.573813 
L 283.151767 148.573813 
L 283.151767 148.573813 
L 269.451594 148.573813 
z
" clip-path="url(#p640f84f22f)" style="fill: #3b5738"/>
   </g>
   <g id="patch_191">
    <path d="M 285.569445 68.977812 
L 299.269618 68.977812 
L 299.269618 68.977812 
L 285.569445 68.977812 
z
" clip-path="url(#p640f84f22f)" style="fill: #3b5738"/>
   </g>
   <g id="patch_192">
    <path d="M 301.687296 104.617812 
L 315.387469 104.617812 
L 315.387469 104.617812 
L 301.687296 104.617812 
z
" clip-path="url(#p640f84f22f)" style="fill: #3b5738"/>
   </g>
   <g id="patch_193">
    <path d="M 317.805147 64.225812 
L 331.50532 64.225812 
L 331.50532 64.225812 
L 317.805147 64.225812 
z
" clip-path="url(#p640f84f22f)" style="fill: #3b5738"/>
   </g>
   <g id="patch_194">
    <path d="M 333.922997 136.693813 
L 347.623171 136.693813 
L 347.623171 136.693813 
L 333.922997 136.693813 
z
" clip-path="url(#p640f84f22f)" style="fill: #3b5738"/>
   </g>
   <g id="patch_195">
    <path d="M 350.040848 77.293813 
L 363.741022 77.293813 
L 363.741022 59.473812 
L 350.040848 59.473812 
z
" clip-path="url(#p640f84f22f)" style="fill: #3b5738"/>
   </g>
   <g id="patch_196">
    <path d="M 366.158699 79.669813 
L 379.858873 79.669813 
L 379.858873 79.669813 
L 366.158699 79.669813 
z
" clip-path="url(#p640f84f22f)" style="fill: #3b5738"/>
   </g>
   <g id="patch_197">
    <path d="M 382.27655 54.721812 
L 395.976724 54.721812 
L 395.976724 54.721812 
L 382.27655 54.721812 
z
" clip-path="url(#p640f84f22f)" style="fill: #3b5738"/>
   </g>
   <g id="patch_198">
    <path d="M 398.394401 90.361812 
L 412.094575 90.361812 
L 412.094575 90.361812 
L 398.394401 90.361812 
z
" clip-path="url(#p640f84f22f)" style="fill: #3b5738"/>
   </g>
   <g id="patch_199">
    <path d="M 414.512252 124.813813 
L 428.212426 124.813813 
L 428.212426 124.813813 
L 414.512252 124.813813 
z
" clip-path="url(#p640f84f22f)" style="fill: #3b5738"/>
   </g>
   <g id="patch_200">
    <path d="M 430.630103 86.797812 
L 444.330276 86.797812 
L 444.330276 86.797812 
L 430.630103 86.797812 
z
" clip-path="url(#p640f84f22f)" style="fill: #3b5738"/>
   </g>
   <g id="patch_201">
    <path d="M 446.747954 53.533813 
L 460.448127 53.533813 
L 460.448127 53.533813 
L 446.747954 53.533813 
z
" clip-path="url(#p640f84f22f)" style="fill: #3b5738"/>
   </g>
   <g id="patch_202">
    <path d="M 462.865805 83.233812 
L 476.565978 83.233812 
L 476.565978 83.233812 
L 462.865805 83.233812 
z
" clip-path="url(#p640f84f22f)" style="fill: #3b5738"/>
   </g>
   <g id="patch_203">
    <path d="M 478.983656 77.293813 
L 492.683829 77.293813 
L 492.683829 77.293813 
L 478.983656 77.293813 
z
" clip-path="url(#p640f84f22f)" style="fill: #3b5738"/>
   </g>
   <g id="patch_204">
    <path d="M 495.101507 52.345812 
L 508.80168 52.345812 
L 508.80168 52.345812 
L 495.101507 52.345812 
z
" clip-path="url(#p640f84f22f)" style="fill: #3b5738"/>
   </g>
   <g id="patch_205">
    <path d="M 511.219358 105.805813 
L 524.919531 105.805813 
L 524.919531 105.805813 
L 511.219358 105.805813 
z
" clip-path="url(#p640f84f22f)" style="fill: #3b5738"/>
   </g>
   <g id="patch_206">
    <path d="M 59.919531 136.693813 
L 73.619705 136.693813 
L 73.619705 136.693813 
L 59.919531 136.693813 
z
" clip-path="url(#p640f84f22f)" style="fill: #6e1a0d"/>
   </g>
   <g id="patch_207">
    <path d="M 76.037382 85.609813 
L 89.737556 85.609813 
L 89.737556 85.609813 
L 76.037382 85.609813 
z
" clip-path="url(#p640f84f22f)" style="fill: #6e1a0d"/>
   </g>
   <g id="patch_208">
    <path d="M 92.155233 123.625812 
L 105.855406 123.625812 
L 105.855406 123.625812 
L 92.155233 123.625812 
z
" clip-path="url(#p640f84f22f)" style="fill: #6e1a0d"/>
   </g>
   <g id="patch_209">
    <path d="M 108.273084 41.653812 
L 121.973257 41.653812 
L 121.973257 41.653812 
L 108.273084 41.653812 
z
" clip-path="url(#p640f84f22f)" style="fill: #6e1a0d"/>
   </g>
   <g id="patch_210">
    <path d="M 124.390935 90.361812 
L 138.091108 90.361812 
L 138.091108 90.361812 
L 124.390935 90.361812 
z
" clip-path="url(#p640f84f22f)" style="fill: #6e1a0d"/>
   </g>
   <g id="patch_211">
    <path d="M 140.508786 66.601812 
L 154.208959 66.601812 
L 154.208959 66.601812 
L 140.508786 66.601812 
z
" clip-path="url(#p640f84f22f)" style="fill: #6e1a0d"/>
   </g>
   <g id="patch_212">
    <path d="M 156.626637 84.421812 
L 170.32681 84.421812 
L 170.32681 84.421812 
L 156.626637 84.421812 
z
" clip-path="url(#p640f84f22f)" style="fill: #6e1a0d"/>
   </g>
   <g id="patch_213">
    <path d="M 172.744488 130.753813 
L 186.444661 130.753813 
L 186.444661 130.753813 
L 172.744488 130.753813 
z
" clip-path="url(#p640f84f22f)" style="fill: #6e1a0d"/>
   </g>
   <g id="patch_214">
    <path d="M 188.862339 135.505812 
L 202.562512 135.505812 
L 202.562512 135.505812 
L 188.862339 135.505812 
z
" clip-path="url(#p640f84f22f)" style="fill: #6e1a0d"/>
   </g>
   <g id="patch_215">
    <path d="M 204.98019 55.909812 
L 218.680363 55.909812 
L 218.680363 55.909812 
L 204.98019 55.909812 
z
" clip-path="url(#p640f84f22f)" style="fill: #6e1a0d"/>
   </g>
   <g id="patch_216">
    <path d="M 221.098041 147.385813 
L 234.798214 147.385813 
L 234.798214 147.385813 
L 221.098041 147.385813 
z
" clip-path="url(#p640f84f22f)" style="fill: #6e1a0d"/>
   </g>
   <g id="patch_217">
    <path d="M 237.215892 122.437813 
L 250.916065 122.437813 
L 250.916065 122.437813 
L 237.215892 122.437813 
z
" clip-path="url(#p640f84f22f)" style="fill: #6e1a0d"/>
   </g>
   <g id="patch_218">
    <path d="M 253.333743 21.457812 
L 267.033916 21.457812 
L 267.033916 21.457812 
L 253.333743 21.457812 
z
" clip-path="url(#p640f84f22f)" style="fill: #6e1a0d"/>
   </g>
   <g id="patch_219">
    <path d="M 269.451594 148.573813 
L 283.151767 148.573813 
L 283.151767 148.573813 
L 269.451594 148.573813 
z
" clip-path="url(#p640f84f22f)" style="fill: #6e1a0d"/>
   </g>
   <g id="patch_220">
    <path d="M 285.569445 68.977812 
L 299.269618 68.977812 
L 299.269618 68.977812 
L 285.569445 68.977812 
z
" clip-path="url(#p640f84f22f)" style="fill: #6e1a0d"/>
   </g>
   <g id="patch_221">
    <path d="M 301.687296 104.617812 
L 315.387469 104.617812 
L 315.387469 104.617812 
L 301.687296 104.617812 
z
" clip-path="url(#p640f84f22f)" style="fill: #6e1a0d"/>
   </g>
   <g id="patch_222">
    <path d="M 317.805147 64.225812 
L 331.50532 64.225812 
L 331.50532 64.225812 
L 317.805147 64.225812 
z
" clip-path="url(#p640f84f22f)" style="fill: #6e1a0d"/>
   </g>
   <g id="patch_223">
    <path d="M 333.922997 136.693813 
L 347.623171 136.693813 
L 347.623171 136.693813 
L 333.922997 136.693813 
z
" clip-path="url(#p640f84f22f)" style="fill: #6e1a0d"/>
   </g>
   <g id="patch_224">
    <path d="M 350.040848 59.473812 
L 363.741022 59.473812 
L 363.741022 59.473812 
L 350.040848 59.473812 
z
" clip-path="url(#p640f84f22f)" style="fill: #6e1a0d"/>
   </g>
   <g id="patch_225">
    <path d="M 366.158699 79.669813 
L 379.858873 79.669813 
L 379.858873 79.669813 
L 366.158699 79.669813 
z
" clip-path="url(#p640f84f22f)" style="fill: #6e1a0d"/>
   </g>
   <g id="patch_226">
    <path d="M 382.27655 54.721812 
L 395.976724 54.721812 
L 395.976724 54.721812 
L 382.27655 54.721812 
z
" clip-path="url(#p640f84f22f)" style="fill: #6e1a0d"/>
   </g>
   <g id="patch_227">
    <path d="M 398.394401 90.361812 
L 412.094575 90.361812 
L 412.094575 90.361812 
L 398.394401 90.361812 
z
" clip-path="url(#p640f84f22f)" style="fill: #6e1a0d"/>
   </g>
   <g id="patch_228">
    <path d="M 414.512252 124.813813 
L 428.212426 124.813813 
L 428.212426 124.813813 
L 414.512252 124.813813 
z
" clip-path="url(#p640f84f22f)" style="fill: #6e1a0d"/>
   </g>
   <g id="patch_229">
    <path d="M 430.630103 86.797812 
L 444.330276 86.797812 
L 444.330276 79.669812 
L 430.630103 79.669812 
z
" clip-path="url(#p640f84f22f)" style="fill: #6e1a0d"/>
   </g>
   <g id="patch_230">
    <path d="M 446.747954 53.533813 
L 460.448127 53.533813 
L 460.448127 53.533813 
L 446.747954 53.533813 
z
" clip-path="url(#p640f84f22f)" style="fill: #6e1a0d"/>
   </g>
   <g id="patch_231">
    <path d="M 462.865805 83.233812 
L 476.565978 83.233812 
L 476.565978 83.233812 
L 462.865805 83.233812 
z
" clip-path="url(#p640f84f22f)" style="fill: #6e1a0d"/>
   </g>
   <g id="patch_232">
    <path d="M 478.983656 77.293813 
L 492.683829 77.293813 
L 492.683829 77.293813 
L 478.983656 77.293813 
z
" clip-path="url(#p640f84f22f)" style="fill: #6e1a0d"/>
   </g>
   <g id="patch_233">
    <path d="M 495.101507 52.345812 
L 508.80168 52.345812 
L 508.80168 52.345812 
L 495.101507 52.345812 
z
" clip-path="url(#p640f84f22f)" style="fill: #6e1a0d"/>
   </g>
   <g id="patch_234">
    <path d="M 511.219358 105.805813 
L 524.919531 105.805813 
L 524.919531 105.805813 
L 511.219358 105.805813 
z
" clip-path="url(#p640f84f22f)" style="fill: #6e1a0d"/>
   </g>
   <g id="matplotlib.axis_1">
    <g id="xtick_1">
     <g id="line2d_1">
      <defs>
       <path id="m81043afe77" d="M 0 0 
L 0 10 
" style="stroke: #000000; stroke-width: 3"/>
      </defs>
      <g>
       <use xlink:href="#m81043afe77" x="66.769618" y="184.213813" style="stroke: #000000; stroke-width: 3"/>
      </g>
     </g>
     <g id="text_1">
      <!-- 1 -->
      <g transform="translate(63.989149 204.88725) scale(0.1 -0.1)">
       <defs>
        <path id="Helvetica-31" d="M 613 3169 
L 613 3600 
Q 1222 3659 1462 3798 
Q 1703 3938 1822 4456 
L 2266 4456 
L 2266 0 
L 1666 0 
L 1666 3169 
L 613 3169 
z
" transform="scale(0.015625)"/>
       </defs>
       <use xlink:href="#Helvetica-31"/>
      </g>
     </g>
    </g>
    <g id="xtick_2">
     <g id="line2d_2">
      <g>
       <use xlink:href="#m81043afe77" x="82.887469" y="184.213813" style="stroke: #000000; stroke-width: 3"/>
      </g>
     </g>
     <g id="text_2">
      <!-- 2 -->
      <g transform="translate(80.107 204.88725) scale(0.1 -0.1)">
       <defs>
        <path id="Helvetica-32" d="M 200 0 
Q 231 578 439 1006 
Q 647 1434 1250 1784 
L 1850 2131 
Q 2253 2366 2416 2531 
Q 2672 2791 2672 3125 
Q 2672 3516 2437 3745 
Q 2203 3975 1813 3975 
Q 1234 3975 1013 3538 
Q 894 3303 881 2888 
L 309 2888 
Q 319 3472 525 3841 
Q 891 4491 1816 4491 
Q 2584 4491 2939 4075 
Q 3294 3659 3294 3150 
Q 3294 2613 2916 2231 
Q 2697 2009 2131 1694 
L 1703 1456 
Q 1397 1288 1222 1134 
Q 909 863 828 531 
L 3272 531 
L 3272 0 
L 200 0 
z
" transform="scale(0.015625)"/>
       </defs>
       <use xlink:href="#Helvetica-32"/>
      </g>
     </g>
    </g>
    <g id="xtick_3">
     <g id="line2d_3">
      <g>
       <use xlink:href="#m81043afe77" x="99.00532" y="184.213813" style="stroke: #000000; stroke-width: 3"/>
      </g>
     </g>
     <g id="text_3">
      <!-- 3 -->
      <g transform="translate(96.224851 204.88725) scale(0.1 -0.1)">
       <defs>
        <path id="Helvetica-33" d="M 1663 -122 
Q 869 -122 511 314 
Q 153 750 153 1375 
L 741 1375 
Q 778 941 903 744 
Q 1122 391 1694 391 
Q 2138 391 2406 628 
Q 2675 866 2675 1241 
Q 2675 1703 2392 1887 
Q 2109 2072 1606 2072 
Q 1550 2072 1492 2070 
Q 1434 2069 1375 2066 
L 1375 2563 
Q 1463 2553 1522 2550 
Q 1581 2547 1650 2547 
Q 1966 2547 2169 2647 
Q 2525 2822 2525 3272 
Q 2525 3606 2287 3787 
Q 2050 3969 1734 3969 
Q 1172 3969 956 3594 
Q 838 3388 822 3006 
L 266 3006 
Q 266 3506 466 3856 
Q 809 4481 1675 4481 
Q 2359 4481 2734 4176 
Q 3109 3872 3109 3294 
Q 3109 2881 2888 2625 
Q 2750 2466 2531 2375 
Q 2884 2278 3082 2001 
Q 3281 1725 3281 1325 
Q 3281 684 2859 281 
Q 2438 -122 1663 -122 
z
" transform="scale(0.015625)"/>
       </defs>
       <use xlink:href="#Helvetica-33"/>
      </g>
     </g>
    </g>
    <g id="xtick_4">
     <g id="line2d_4">
      <g>
       <use xlink:href="#m81043afe77" x="115.123171" y="184.213813" style="stroke: #000000; stroke-width: 3"/>
      </g>
     </g>
     <g id="text_4">
      <!-- 4 -->
      <g transform="translate(112.342702 204.88725) scale(0.1 -0.1)">
       <defs>
        <path id="Helvetica-34" d="M 2116 1584 
L 2116 3613 
L 681 1584 
L 2116 1584 
z
M 2125 0 
L 2125 1094 
L 163 1094 
L 163 1644 
L 2213 4488 
L 2688 4488 
L 2688 1584 
L 3347 1584 
L 3347 1094 
L 2688 1094 
L 2688 0 
L 2125 0 
z
" transform="scale(0.015625)"/>
       </defs>
       <use xlink:href="#Helvetica-34"/>
      </g>
     </g>
    </g>
    <g id="xtick_5">
     <g id="line2d_5">
      <g>
       <use xlink:href="#m81043afe77" x="131.241022" y="184.213813" style="stroke: #000000; stroke-width: 3"/>
      </g>
     </g>
     <g id="text_5">
      <!-- 5 -->
      <g transform="translate(128.460553 204.88725) scale(0.1 -0.1)">
       <defs>
        <path id="Helvetica-35" d="M 791 1141 
Q 847 659 1238 475 
Q 1438 381 1700 381 
Q 2200 381 2440 700 
Q 2681 1019 2681 1406 
Q 2681 1875 2395 2131 
Q 2109 2388 1709 2388 
Q 1419 2388 1211 2275 
Q 1003 2163 856 1963 
L 369 1991 
L 709 4400 
L 3034 4400 
L 3034 3856 
L 1131 3856 
L 941 2613 
Q 1097 2731 1238 2791 
Q 1488 2894 1816 2894 
Q 2431 2894 2859 2497 
Q 3288 2100 3288 1491 
Q 3288 856 2895 371 
Q 2503 -113 1644 -113 
Q 1097 -113 676 195 
Q 256 503 206 1141 
L 791 1141 
z
" transform="scale(0.015625)"/>
       </defs>
       <use xlink:href="#Helvetica-35"/>
      </g>
     </g>
    </g>
    <g id="xtick_6">
     <g id="line2d_6">
      <g>
       <use xlink:href="#m81043afe77" x="147.358873" y="184.213813" style="stroke: #000000; stroke-width: 3"/>
      </g>
     </g>
     <g id="text_6">
      <!-- 6 -->
      <g transform="translate(144.578404 204.88725) scale(0.1 -0.1)">
       <defs>
        <path id="Helvetica-36" d="M 1872 4494 
Q 2622 4494 2917 4105 
Q 3213 3716 3213 3303 
L 2656 3303 
Q 2606 3569 2497 3719 
Q 2294 4000 1881 4000 
Q 1409 4000 1131 3564 
Q 853 3128 822 2316 
Q 1016 2600 1309 2741 
Q 1578 2866 1909 2866 
Q 2472 2866 2890 2506 
Q 3309 2147 3309 1434 
Q 3309 825 2912 354 
Q 2516 -116 1781 -116 
Q 1153 -116 697 361 
Q 241 838 241 1966 
Q 241 2800 444 3381 
Q 834 4494 1872 4494 
z
M 1831 384 
Q 2275 384 2495 682 
Q 2716 981 2716 1388 
Q 2716 1731 2519 2042 
Q 2322 2353 1803 2353 
Q 1441 2353 1167 2112 
Q 894 1872 894 1388 
Q 894 963 1142 673 
Q 1391 384 1831 384 
z
" transform="scale(0.015625)"/>
       </defs>
       <use xlink:href="#Helvetica-36"/>
      </g>
     </g>
    </g>
    <g id="xtick_7">
     <g id="line2d_7">
      <g>
       <use xlink:href="#m81043afe77" x="163.476724" y="184.213813" style="stroke: #000000; stroke-width: 3"/>
      </g>
     </g>
     <g id="text_7">
      <!-- 7 -->
      <g transform="translate(160.696255 204.88725) scale(0.1 -0.1)">
       <defs>
        <path id="Helvetica-37" d="M 3347 4400 
L 3347 3909 
Q 3131 3700 2773 3181 
Q 2416 2663 2141 2063 
Q 1869 1478 1728 997 
Q 1638 688 1494 0 
L 872 0 
Q 1084 1281 1809 2550 
Q 2238 3294 2709 3834 
L 234 3834 
L 234 4400 
L 3347 4400 
z
" transform="scale(0.015625)"/>
       </defs>
       <use xlink:href="#Helvetica-37"/>
      </g>
     </g>
    </g>
    <g id="xtick_8">
     <g id="line2d_8">
      <g>
       <use xlink:href="#m81043afe77" x="179.594575" y="184.213813" style="stroke: #000000; stroke-width: 3"/>
      </g>
     </g>
     <g id="text_8">
      <!-- 8 -->
      <g transform="translate(176.814106 204.88725) scale(0.1 -0.1)">
       <defs>
        <path id="Helvetica-38" d="M 1741 2600 
Q 2113 2600 2322 2808 
Q 2531 3016 2531 3303 
Q 2531 3553 2331 3762 
Q 2131 3972 1722 3972 
Q 1316 3972 1134 3762 
Q 953 3553 953 3272 
Q 953 2956 1187 2778 
Q 1422 2600 1741 2600 
z
M 1775 384 
Q 2166 384 2423 595 
Q 2681 806 2681 1225 
Q 2681 1659 2415 1884 
Q 2150 2109 1734 2109 
Q 1331 2109 1076 1879 
Q 822 1650 822 1244 
Q 822 894 1055 639 
Q 1288 384 1775 384 
z
M 975 2384 
Q 741 2484 609 2619 
Q 363 2869 363 3269 
Q 363 3769 725 4128 
Q 1088 4488 1753 4488 
Q 2397 4488 2762 4148 
Q 3128 3809 3128 3356 
Q 3128 2938 2916 2678 
Q 2797 2531 2547 2391 
Q 2825 2263 2984 2097 
Q 3281 1784 3281 1284 
Q 3281 694 2884 283 
Q 2488 -128 1763 -128 
Q 1109 -128 657 226 
Q 206 581 206 1256 
Q 206 1653 400 1942 
Q 594 2231 975 2384 
z
" transform="scale(0.015625)"/>
       </defs>
       <use xlink:href="#Helvetica-38"/>
      </g>
     </g>
    </g>
    <g id="xtick_9">
     <g id="line2d_9">
      <g>
       <use xlink:href="#m81043afe77" x="195.712426" y="184.213813" style="stroke: #000000; stroke-width: 3"/>
      </g>
     </g>
     <g id="text_9">
      <!-- 9 -->
      <g transform="translate(192.931957 204.88725) scale(0.1 -0.1)">
       <defs>
        <path id="Helvetica-39" d="M 850 1081 
Q 875 616 1209 438 
Q 1381 344 1597 344 
Q 2000 344 2284 680 
Q 2569 1016 2688 2044 
Q 2500 1747 2223 1626 
Q 1947 1506 1628 1506 
Q 981 1506 604 1909 
Q 228 2313 228 2947 
Q 228 3556 600 4018 
Q 972 4481 1697 4481 
Q 2675 4481 3047 3600 
Q 3253 3116 3253 2388 
Q 3253 1566 3006 931 
Q 2597 -125 1619 -125 
Q 963 -125 622 219 
Q 281 563 281 1081 
L 850 1081 
z
M 1703 2000 
Q 2038 2000 2314 2220 
Q 2591 2441 2591 2991 
Q 2591 3484 2342 3726 
Q 2094 3969 1709 3969 
Q 1297 3969 1055 3692 
Q 813 3416 813 2953 
Q 813 2516 1025 2258 
Q 1238 2000 1703 2000 
z
" transform="scale(0.015625)"/>
       </defs>
       <use xlink:href="#Helvetica-39"/>
      </g>
     </g>
    </g>
    <g id="xtick_10">
     <g id="line2d_10">
      <g>
       <use xlink:href="#m81043afe77" x="211.830276" y="184.213813" style="stroke: #000000; stroke-width: 3"/>
      </g>
     </g>
     <g id="text_10">
      <!-- 10 -->
      <g transform="translate(206.269339 204.88725) scale(0.1 -0.1)">
       <defs>
        <path id="Helvetica-30" d="M 1731 4475 
Q 2600 4475 2988 3759 
Q 3288 3206 3288 2244 
Q 3288 1331 3016 734 
Q 2622 -122 1728 -122 
Q 922 -122 528 578 
Q 200 1163 200 2147 
Q 200 2909 397 3456 
Q 766 4475 1731 4475 
z
M 1725 391 
Q 2163 391 2422 778 
Q 2681 1166 2681 2222 
Q 2681 2984 2493 3476 
Q 2306 3969 1766 3969 
Q 1269 3969 1039 3501 
Q 809 3034 809 2125 
Q 809 1441 956 1025 
Q 1181 391 1725 391 
z
" transform="scale(0.015625)"/>
       </defs>
       <use xlink:href="#Helvetica-31"/>
       <use xlink:href="#Helvetica-30" x="55.615234"/>
      </g>
     </g>
    </g>
    <g id="xtick_11">
     <g id="line2d_11">
      <g>
       <use xlink:href="#m81043afe77" x="227.948127" y="184.213813" style="stroke: #000000; stroke-width: 3"/>
      </g>
     </g>
     <g id="text_11">
      <!-- 11 -->
      <g transform="translate(222.38719 204.88725) scale(0.1 -0.1)">
       <use xlink:href="#Helvetica-31"/>
       <use xlink:href="#Helvetica-31" x="55.615234"/>
      </g>
     </g>
    </g>
    <g id="xtick_12">
     <g id="line2d_12">
      <g>
       <use xlink:href="#m81043afe77" x="244.065978" y="184.213813" style="stroke: #000000; stroke-width: 3"/>
      </g>
     </g>
     <g id="text_12">
      <!-- 12 -->
      <g transform="translate(238.505041 204.88725) scale(0.1 -0.1)">
       <use xlink:href="#Helvetica-31"/>
       <use xlink:href="#Helvetica-32" x="55.615234"/>
      </g>
     </g>
    </g>
    <g id="xtick_13">
     <g id="line2d_13">
      <g>
       <use xlink:href="#m81043afe77" x="260.183829" y="184.213813" style="stroke: #000000; stroke-width: 3"/>
      </g>
     </g>
     <g id="text_13">
      <!-- 13 -->
      <g transform="translate(254.622892 204.88725) scale(0.1 -0.1)">
       <use xlink:href="#Helvetica-31"/>
       <use xlink:href="#Helvetica-33" x="55.615234"/>
      </g>
     </g>
    </g>
    <g id="xtick_14">
     <g id="line2d_14">
      <g>
       <use xlink:href="#m81043afe77" x="276.30168" y="184.213813" style="stroke: #000000; stroke-width: 3"/>
      </g>
     </g>
     <g id="text_14">
      <!-- 14 -->
      <g transform="translate(270.740743 204.88725) scale(0.1 -0.1)">
       <use xlink:href="#Helvetica-31"/>
       <use xlink:href="#Helvetica-34" x="55.615234"/>
      </g>
     </g>
    </g>
    <g id="xtick_15">
     <g id="line2d_15">
      <g>
       <use xlink:href="#m81043afe77" x="292.419531" y="184.213813" style="stroke: #000000; stroke-width: 3"/>
      </g>
     </g>
     <g id="text_15">
      <!-- 15 -->
      <g transform="translate(286.858594 204.88725) scale(0.1 -0.1)">
       <use xlink:href="#Helvetica-31"/>
       <use xlink:href="#Helvetica-35" x="55.615234"/>
      </g>
     </g>
    </g>
    <g id="xtick_16">
     <g id="line2d_16">
      <g>
       <use xlink:href="#m81043afe77" x="308.537382" y="184.213813" style="stroke: #000000; stroke-width: 3"/>
      </g>
     </g>
     <g id="text_16">
      <!-- 16 -->
      <g transform="translate(302.976445 204.88725) scale(0.1 -0.1)">
       <use xlink:href="#Helvetica-31"/>
       <use xlink:href="#Helvetica-36" x="55.615234"/>
      </g>
     </g>
    </g>
    <g id="xtick_17">
     <g id="line2d_17">
      <g>
       <use xlink:href="#m81043afe77" x="324.655233" y="184.213813" style="stroke: #000000; stroke-width: 3"/>
      </g>
     </g>
     <g id="text_17">
      <!-- 17 -->
      <g transform="translate(319.094296 204.88725) scale(0.1 -0.1)">
       <use xlink:href="#Helvetica-31"/>
       <use xlink:href="#Helvetica-37" x="55.615234"/>
      </g>
     </g>
    </g>
    <g id="xtick_18">
     <g id="line2d_18">
      <g>
       <use xlink:href="#m81043afe77" x="340.773084" y="184.213813" style="stroke: #000000; stroke-width: 3"/>
      </g>
     </g>
     <g id="text_18">
      <!-- 18 -->
      <g transform="translate(335.212147 204.88725) scale(0.1 -0.1)">
       <use xlink:href="#Helvetica-31"/>
       <use xlink:href="#Helvetica-38" x="55.615234"/>
      </g>
     </g>
    </g>
    <g id="xtick_19">
     <g id="line2d_19">
      <g>
       <use xlink:href="#m81043afe77" x="356.890935" y="184.213813" style="stroke: #000000; stroke-width: 3"/>
      </g>
     </g>
     <g id="text_19">
      <!-- 19 -->
      <g transform="translate(351.329998 204.88725) scale(0.1 -0.1)">
       <use xlink:href="#Helvetica-31"/>
       <use xlink:href="#Helvetica-39" x="55.615234"/>
      </g>
     </g>
    </g>
    <g id="xtick_20">
     <g id="line2d_20">
      <g>
       <use xlink:href="#m81043afe77" x="373.008786" y="184.213813" style="stroke: #000000; stroke-width: 3"/>
      </g>
     </g>
     <g id="text_20">
      <!-- 20 -->
      <g transform="translate(367.447849 204.88725) scale(0.1 -0.1)">
       <use xlink:href="#Helvetica-32"/>
       <use xlink:href="#Helvetica-30" x="55.615234"/>
      </g>
     </g>
    </g>
    <g id="xtick_21">
     <g id="line2d_21">
      <g>
       <use xlink:href="#m81043afe77" x="389.126637" y="184.213813" style="stroke: #000000; stroke-width: 3"/>
      </g>
     </g>
     <g id="text_21">
      <!-- 21 -->
      <g transform="translate(383.565699 204.88725) scale(0.1 -0.1)">
       <use xlink:href="#Helvetica-32"/>
       <use xlink:href="#Helvetica-31" x="55.615234"/>
      </g>
     </g>
    </g>
    <g id="xtick_22">
     <g id="line2d_22">
      <g>
       <use xlink:href="#m81043afe77" x="405.244488" y="184.213813" style="stroke: #000000; stroke-width: 3"/>
      </g>
     </g>
     <g id="text_22">
      <!-- 22 -->
      <g transform="translate(399.68355 204.88725) scale(0.1 -0.1)">
       <use xlink:href="#Helvetica-32"/>
       <use xlink:href="#Helvetica-32" x="55.615234"/>
      </g>
     </g>
    </g>
    <g id="xtick_23">
     <g id="line2d_23">
      <g>
       <use xlink:href="#m81043afe77" x="421.362339" y="184.213813" style="stroke: #000000; stroke-width: 3"/>
      </g>
     </g>
     <g id="text_23">
      <!-- 23 -->
      <g transform="translate(415.801401 204.88725) scale(0.1 -0.1)">
       <use xlink:href="#Helvetica-32"/>
       <use xlink:href="#Helvetica-33" x="55.615234"/>
      </g>
     </g>
    </g>
    <g id="xtick_24">
     <g id="line2d_24">
      <g>
       <use xlink:href="#m81043afe77" x="437.48019" y="184.213813" style="stroke: #000000; stroke-width: 3"/>
      </g>
     </g>
     <g id="text_24">
      <!-- 24 -->
      <g transform="translate(431.919252 204.88725) scale(0.1 -0.1)">
       <use xlink:href="#Helvetica-32"/>
       <use xlink:href="#Helvetica-34" x="55.615234"/>
      </g>
     </g>
    </g>
    <g id="xtick_25">
     <g id="line2d_25">
      <g>
       <use xlink:href="#m81043afe77" x="453.598041" y="184.213813" style="stroke: #000000; stroke-width: 3"/>
      </g>
     </g>
     <g id="text_25">
      <!-- 25 -->
      <g transform="translate(448.037103 204.88725) scale(0.1 -0.1)">
       <use xlink:href="#Helvetica-32"/>
       <use xlink:href="#Helvetica-35" x="55.615234"/>
      </g>
     </g>
    </g>
    <g id="xtick_26">
     <g id="line2d_26">
      <g>
       <use xlink:href="#m81043afe77" x="469.715892" y="184.213813" style="stroke: #000000; stroke-width: 3"/>
      </g>
     </g>
     <g id="text_26">
      <!-- 26 -->
      <g transform="translate(464.154954 204.88725) scale(0.1 -0.1)">
       <use xlink:href="#Helvetica-32"/>
       <use xlink:href="#Helvetica-36" x="55.615234"/>
      </g>
     </g>
    </g>
    <g id="xtick_27">
     <g id="line2d_27">
      <g>
       <use xlink:href="#m81043afe77" x="485.833743" y="184.213813" style="stroke: #000000; stroke-width: 3"/>
      </g>
     </g>
     <g id="text_27">
      <!-- 27 -->
      <g transform="translate(480.272805 204.88725) scale(0.1 -0.1)">
       <use xlink:href="#Helvetica-32"/>
       <use xlink:href="#Helvetica-37" x="55.615234"/>
      </g>
     </g>
    </g>
    <g id="xtick_28">
     <g id="line2d_28">
      <g>
       <use xlink:href="#m81043afe77" x="501.951594" y="184.213813" style="stroke: #000000; stroke-width: 3"/>
      </g>
     </g>
     <g id="text_28">
      <!-- 28 -->
      <g transform="translate(496.390656 204.88725) scale(0.1 -0.1)">
       <use xlink:href="#Helvetica-32"/>
       <use xlink:href="#Helvetica-38" x="55.615234"/>
      </g>
     </g>
    </g>
    <g id="xtick_29">
     <g id="line2d_29">
      <g>
       <use xlink:href="#m81043afe77" x="518.069445" y="184.213813" style="stroke: #000000; stroke-width: 3"/>
      </g>
     </g>
     <g id="text_29">
      <!-- 29 -->
      <g transform="translate(512.508507 204.88725) scale(0.1 -0.1)">
       <use xlink:href="#Helvetica-32"/>
       <use xlink:href="#Helvetica-39" x="55.615234"/>
      </g>
     </g>
    </g>
    <g id="text_30">
     <!-- Patient ID -->
     <g transform="translate(259.4875 232.731781) scale(0.15 -0.15)">
      <defs>
       <path id="Helvetica-50" d="M 547 4591 
L 2613 4591 
Q 3225 4591 3600 4245 
Q 3975 3900 3975 3275 
Q 3975 2738 3640 2339 
Q 3306 1941 2613 1941 
L 1169 1941 
L 1169 0 
L 547 0 
L 547 4591 
z
M 3347 3272 
Q 3347 3778 2972 3959 
Q 2766 4056 2406 4056 
L 1169 4056 
L 1169 2466 
L 2406 2466 
Q 2825 2466 3086 2644 
Q 3347 2822 3347 3272 
z
" transform="scale(0.015625)"/>
       <path id="Helvetica-61" d="M 844 891 
Q 844 647 1022 506 
Q 1200 366 1444 366 
Q 1741 366 2019 503 
Q 2488 731 2488 1250 
L 2488 1703 
Q 2384 1638 2221 1594 
Q 2059 1550 1903 1531 
L 1563 1488 
Q 1256 1447 1103 1359 
Q 844 1213 844 891 
z
M 2206 2028 
Q 2400 2053 2466 2191 
Q 2503 2266 2503 2406 
Q 2503 2694 2298 2823 
Q 2094 2953 1713 2953 
Q 1272 2953 1088 2716 
Q 984 2584 953 2325 
L 428 2325 
Q 444 2944 830 3186 
Q 1216 3428 1725 3428 
Q 2316 3428 2684 3203 
Q 3050 2978 3050 2503 
L 3050 575 
Q 3050 488 3086 434 
Q 3122 381 3238 381 
Q 3275 381 3322 386 
Q 3369 391 3422 400 
L 3422 -16 
Q 3291 -53 3222 -62 
Q 3153 -72 3034 -72 
Q 2744 -72 2613 134 
Q 2544 244 2516 444 
Q 2344 219 2022 53 
Q 1700 -113 1313 -113 
Q 847 -113 551 170 
Q 256 453 256 878 
Q 256 1344 547 1600 
Q 838 1856 1309 1916 
L 2206 2028 
z
M 1741 3428 
L 1741 3428 
z
" transform="scale(0.015625)"/>
       <path id="Helvetica-74" d="M 525 4281 
L 1094 4281 
L 1094 3347 
L 1628 3347 
L 1628 2888 
L 1094 2888 
L 1094 703 
Q 1094 528 1213 469 
Q 1278 434 1431 434 
Q 1472 434 1519 436 
Q 1566 438 1628 444 
L 1628 0 
Q 1531 -28 1426 -40 
Q 1322 -53 1200 -53 
Q 806 -53 665 148 
Q 525 350 525 672 
L 525 2888 
L 72 2888 
L 72 3347 
L 525 3347 
L 525 4281 
z
" transform="scale(0.015625)"/>
       <path id="Helvetica-69" d="M 413 3331 
L 984 3331 
L 984 0 
L 413 0 
L 413 3331 
z
M 413 4591 
L 984 4591 
L 984 3953 
L 413 3953 
L 413 4591 
z
" transform="scale(0.015625)"/>
       <path id="Helvetica-65" d="M 1806 3422 
Q 2163 3422 2497 3255 
Q 2831 3088 3006 2822 
Q 3175 2569 3231 2231 
Q 3281 2000 3281 1494 
L 828 1494 
Q 844 984 1069 676 
Q 1294 369 1766 369 
Q 2206 369 2469 659 
Q 2619 828 2681 1050 
L 3234 1050 
Q 3213 866 3089 639 
Q 2966 413 2813 269 
Q 2556 19 2178 -69 
Q 1975 -119 1719 -119 
Q 1094 -119 659 336 
Q 225 791 225 1609 
Q 225 2416 662 2919 
Q 1100 3422 1806 3422 
z
M 2703 1941 
Q 2669 2306 2544 2525 
Q 2313 2931 1772 2931 
Q 1384 2931 1121 2651 
Q 859 2372 844 1941 
L 2703 1941 
z
M 1753 3428 
L 1753 3428 
z
" transform="scale(0.015625)"/>
       <path id="Helvetica-6e" d="M 413 3347 
L 947 3347 
L 947 2872 
Q 1184 3166 1450 3294 
Q 1716 3422 2041 3422 
Q 2753 3422 3003 2925 
Q 3141 2653 3141 2147 
L 3141 0 
L 2569 0 
L 2569 2109 
Q 2569 2416 2478 2603 
Q 2328 2916 1934 2916 
Q 1734 2916 1606 2875 
Q 1375 2806 1200 2600 
Q 1059 2434 1017 2257 
Q 975 2081 975 1753 
L 975 0 
L 413 0 
L 413 3347 
z
M 1734 3428 
L 1734 3428 
z
" transform="scale(0.015625)"/>
       <path id="Helvetica-20" transform="scale(0.015625)"/>
       <path id="Helvetica-49" d="M 628 4591 
L 1256 4591 
L 1256 0 
L 628 0 
L 628 4591 
z
" transform="scale(0.015625)"/>
       <path id="Helvetica-44" d="M 2250 531 
Q 2566 531 2769 597 
Q 3131 719 3363 1066 
Q 3547 1344 3628 1778 
Q 3675 2038 3675 2259 
Q 3675 3113 3336 3584 
Q 2997 4056 2244 4056 
L 1141 4056 
L 1141 531 
L 2250 531 
z
M 516 4591 
L 2375 4591 
Q 3322 4591 3844 3919 
Q 4309 3313 4309 2366 
Q 4309 1634 4034 1044 
Q 3550 0 2369 0 
L 516 0 
L 516 4591 
z
" transform="scale(0.015625)"/>
      </defs>
      <use xlink:href="#Helvetica-50"/>
      <use xlink:href="#Helvetica-61" x="66.699219"/>
      <use xlink:href="#Helvetica-74" x="122.314453"/>
      <use xlink:href="#Helvetica-69" x="150.097656"/>
      <use xlink:href="#Helvetica-65" x="172.314453"/>
      <use xlink:href="#Helvetica-6e" x="227.929688"/>
      <use xlink:href="#Helvetica-74" x="283.544922"/>
      <use xlink:href="#Helvetica-20" x="311.328125"/>
      <use xlink:href="#Helvetica-49" x="339.111328"/>
      <use xlink:href="#Helvetica-44" x="366.894531"/>
     </g>
    </g>
   </g>
   <g id="matplotlib.axis_2">
    <g id="ytick_1">
     <g id="line2d_30">
      <defs>
       <path id="mf167a15df2" d="M 0 0 
L -10 0 
" style="stroke: #000000; stroke-width: 3"/>
      </defs>
      <g>
       <use xlink:href="#mf167a15df2" x="55.269531" y="184.213813" style="stroke: #000000; stroke-width: 3"/>
      </g>
     </g>
     <g id="text_31">
      <!-- 0 -->
      <g transform="translate(36.208594 187.800531) scale(0.1 -0.1)">
       <use xlink:href="#Helvetica-30"/>
      </g>
     </g>
    </g>
    <g id="ytick_2">
     <g id="line2d_31">
      <g>
       <use xlink:href="#mf167a15df2" x="55.269531" y="160.453813" style="stroke: #000000; stroke-width: 3"/>
      </g>
     </g>
     <g id="text_32">
      <!-- 20 -->
      <g transform="translate(30.647656 164.040531) scale(0.1 -0.1)">
       <use xlink:href="#Helvetica-32"/>
       <use xlink:href="#Helvetica-30" x="55.615234"/>
      </g>
     </g>
    </g>
    <g id="ytick_3">
     <g id="line2d_32">
      <g>
       <use xlink:href="#mf167a15df2" x="55.269531" y="136.693813" style="stroke: #000000; stroke-width: 3"/>
      </g>
     </g>
     <g id="text_33">
      <!-- 40 -->
      <g transform="translate(30.647656 140.280531) scale(0.1 -0.1)">
       <use xlink:href="#Helvetica-34"/>
       <use xlink:href="#Helvetica-30" x="55.615234"/>
      </g>
     </g>
    </g>
    <g id="ytick_4">
     <g id="line2d_33">
      <g>
       <use xlink:href="#mf167a15df2" x="55.269531" y="112.933813" style="stroke: #000000; stroke-width: 3"/>
      </g>
     </g>
     <g id="text_34">
      <!-- 60 -->
      <g transform="translate(30.647656 116.520531) scale(0.1 -0.1)">
       <use xlink:href="#Helvetica-36"/>
       <use xlink:href="#Helvetica-30" x="55.615234"/>
      </g>
     </g>
    </g>
    <g id="ytick_5">
     <g id="line2d_34">
      <g>
       <use xlink:href="#mf167a15df2" x="55.269531" y="89.173812" style="stroke: #000000; stroke-width: 3"/>
      </g>
     </g>
     <g id="text_35">
      <!-- 80 -->
      <g transform="translate(30.647656 92.760531) scale(0.1 -0.1)">
       <use xlink:href="#Helvetica-38"/>
       <use xlink:href="#Helvetica-30" x="55.615234"/>
      </g>
     </g>
    </g>
    <g id="ytick_6">
     <g id="line2d_35">
      <g>
       <use xlink:href="#mf167a15df2" x="55.269531" y="65.413813" style="stroke: #000000; stroke-width: 3"/>
      </g>
     </g>
     <g id="text_36">
      <!-- 100 -->
      <g transform="translate(25.086719 69.000531) scale(0.1 -0.1)">
       <use xlink:href="#Helvetica-31"/>
       <use xlink:href="#Helvetica-30" x="55.615234"/>
       <use xlink:href="#Helvetica-30" x="111.230469"/>
      </g>
     </g>
    </g>
    <g id="ytick_7">
     <g id="line2d_36">
      <g>
       <use xlink:href="#mf167a15df2" x="55.269531" y="41.653812" style="stroke: #000000; stroke-width: 3"/>
      </g>
     </g>
     <g id="text_37">
      <!-- 120 -->
      <g transform="translate(25.086719 45.240531) scale(0.1 -0.1)">
       <use xlink:href="#Helvetica-31"/>
       <use xlink:href="#Helvetica-32" x="55.615234"/>
       <use xlink:href="#Helvetica-30" x="111.230469"/>
      </g>
     </g>
    </g>
    <g id="ytick_8">
     <g id="line2d_37">
      <g>
       <use xlink:href="#mf167a15df2" x="55.269531" y="17.893812" style="stroke: #000000; stroke-width: 3"/>
      </g>
     </g>
     <g id="text_38">
      <!-- 140 -->
      <g transform="translate(25.086719 21.480531) scale(0.1 -0.1)">
       <use xlink:href="#Helvetica-31"/>
       <use xlink:href="#Helvetica-34" x="55.615234"/>
       <use xlink:href="#Helvetica-30" x="111.230469"/>
      </g>
     </g>
    </g>
    <g id="text_39">
     <!-- Number of units -->
     <g transform="translate(17.960156 153.98975) rotate(-90) scale(0.15 -0.15)">
      <defs>
       <path id="Helvetica-4e" d="M 488 4591 
L 1222 4591 
L 3541 872 
L 3541 4591 
L 4131 4591 
L 4131 0 
L 3434 0 
L 1081 3716 
L 1081 0 
L 488 0 
L 488 4591 
z
M 2269 4591 
L 2269 4591 
z
" transform="scale(0.015625)"/>
       <path id="Helvetica-75" d="M 975 3347 
L 975 1125 
Q 975 869 1056 706 
Q 1206 406 1616 406 
Q 2203 406 2416 931 
Q 2531 1213 2531 1703 
L 2531 3347 
L 3094 3347 
L 3094 0 
L 2563 0 
L 2569 494 
Q 2459 303 2297 172 
Q 1975 -91 1516 -91 
Q 800 -91 541 388 
Q 400 644 400 1072 
L 400 3347 
L 975 3347 
z
M 1747 3428 
L 1747 3428 
z
" transform="scale(0.015625)"/>
       <path id="Helvetica-6d" d="M 413 3347 
L 969 3347 
L 969 2872 
Q 1169 3119 1331 3231 
Q 1609 3422 1963 3422 
Q 2363 3422 2606 3225 
Q 2744 3113 2856 2894 
Q 3044 3163 3297 3292 
Q 3550 3422 3866 3422 
Q 4541 3422 4784 2934 
Q 4916 2672 4916 2228 
L 4916 0 
L 4331 0 
L 4331 2325 
Q 4331 2659 4164 2784 
Q 3997 2909 3756 2909 
Q 3425 2909 3186 2687 
Q 2947 2466 2947 1947 
L 2947 0 
L 2375 0 
L 2375 2184 
Q 2375 2525 2294 2681 
Q 2166 2916 1816 2916 
Q 1497 2916 1236 2669 
Q 975 2422 975 1775 
L 975 0 
L 413 0 
L 413 3347 
z
" transform="scale(0.015625)"/>
       <path id="Helvetica-62" d="M 369 4606 
L 916 4606 
L 916 2941 
Q 1100 3181 1356 3307 
Q 1613 3434 1913 3434 
Q 2538 3434 2927 3004 
Q 3316 2575 3316 1738 
Q 3316 944 2931 419 
Q 2547 -106 1866 -106 
Q 1484 -106 1222 78 
Q 1066 188 888 428 
L 888 0 
L 369 0 
L 369 4606 
z
M 1831 391 
Q 2288 391 2514 753 
Q 2741 1116 2741 1709 
Q 2741 2238 2514 2584 
Q 2288 2931 1847 2931 
Q 1463 2931 1173 2647 
Q 884 2363 884 1709 
Q 884 1238 1003 944 
Q 1225 391 1831 391 
z
" transform="scale(0.015625)"/>
       <path id="Helvetica-72" d="M 428 3347 
L 963 3347 
L 963 2769 
Q 1028 2938 1284 3180 
Q 1541 3422 1875 3422 
Q 1891 3422 1928 3419 
Q 1966 3416 2056 3406 
L 2056 2813 
Q 2006 2822 1964 2825 
Q 1922 2828 1872 2828 
Q 1447 2828 1219 2554 
Q 991 2281 991 1925 
L 991 0 
L 428 0 
L 428 3347 
z
" transform="scale(0.015625)"/>
       <path id="Helvetica-6f" d="M 1741 363 
Q 2300 363 2508 786 
Q 2716 1209 2716 1728 
Q 2716 2197 2566 2491 
Q 2328 2953 1747 2953 
Q 1231 2953 997 2559 
Q 763 2166 763 1609 
Q 763 1075 997 719 
Q 1231 363 1741 363 
z
M 1763 3444 
Q 2409 3444 2856 3012 
Q 3303 2581 3303 1744 
Q 3303 934 2909 406 
Q 2516 -122 1688 -122 
Q 997 -122 590 345 
Q 184 813 184 1600 
Q 184 2444 612 2944 
Q 1041 3444 1763 3444 
z
M 1744 3428 
L 1744 3428 
z
" transform="scale(0.015625)"/>
       <path id="Helvetica-66" d="M 553 3856 
Q 566 4206 675 4369 
Q 872 4656 1434 4656 
Q 1488 4656 1544 4653 
Q 1600 4650 1672 4644 
L 1672 4131 
Q 1584 4138 1545 4139 
Q 1506 4141 1472 4141 
Q 1216 4141 1166 4008 
Q 1116 3875 1116 3331 
L 1672 3331 
L 1672 2888 
L 1109 2888 
L 1109 0 
L 553 0 
L 553 2888 
L 88 2888 
L 88 3331 
L 553 3331 
L 553 3856 
z
" transform="scale(0.015625)"/>
       <path id="Helvetica-73" d="M 747 1050 
Q 772 769 888 619 
Q 1100 347 1625 347 
Q 1938 347 2175 483 
Q 2413 619 2413 903 
Q 2413 1119 2222 1231 
Q 2100 1300 1741 1391 
L 1294 1503 
Q 866 1609 663 1741 
Q 300 1969 300 2372 
Q 300 2847 642 3140 
Q 984 3434 1563 3434 
Q 2319 3434 2653 2991 
Q 2863 2709 2856 2384 
L 2325 2384 
Q 2309 2575 2191 2731 
Q 1997 2953 1519 2953 
Q 1200 2953 1036 2831 
Q 872 2709 872 2509 
Q 872 2291 1088 2159 
Q 1213 2081 1456 2022 
L 1828 1931 
Q 2434 1784 2641 1647 
Q 2969 1431 2969 969 
Q 2969 522 2630 197 
Q 2291 -128 1597 -128 
Q 850 -128 539 211 
Q 228 550 206 1050 
L 747 1050 
z
M 1578 3428 
L 1578 3428 
z
" transform="scale(0.015625)"/>
      </defs>
      <use xlink:href="#Helvetica-4e"/>
      <use xlink:href="#Helvetica-75" x="72.216797"/>
      <use xlink:href="#Helvetica-6d" x="127.832031"/>
      <use xlink:href="#Helvetica-62" x="211.132812"/>
      <use xlink:href="#Helvetica-65" x="266.748047"/>
      <use xlink:href="#Helvetica-72" x="322.363281"/>
      <use xlink:href="#Helvetica-20" x="355.664062"/>
      <use xlink:href="#Helvetica-6f" x="383.447266"/>
      <use xlink:href="#Helvetica-66" x="439.0625"/>
      <use xlink:href="#Helvetica-20" x="466.845703"/>
      <use xlink:href="#Helvetica-75" x="494.628906"/>
      <use xlink:href="#Helvetica-6e" x="550.244141"/>
      <use xlink:href="#Helvetica-69" x="605.859375"/>
      <use xlink:href="#Helvetica-74" x="628.076172"/>
      <use xlink:href="#Helvetica-73" x="655.859375"/>
     </g>
    </g>
   </g>
   <g id="patch_235">
    <path d="M 55.269531 184.213813 
L 55.269531 17.893812 
" style="fill: none; stroke: #000000; stroke-width: 3; stroke-linejoin: miter; stroke-linecap: square"/>
   </g>
   <g id="patch_236">
    <path d="M 55.269531 184.213813 
L 529.569531 184.213813 
" style="fill: none; stroke: #000000; stroke-width: 3; stroke-linejoin: miter; stroke-linecap: square"/>
   </g>
   <g id="text_40">
    <!-- 40 -->
    <g transform="translate(61.20868 129.609438) scale(0.1 -0.1)">
     <use xlink:href="#Helvetica-34"/>
     <use xlink:href="#Helvetica-30" x="55.615234"/>
    </g>
   </g>
   <g id="text_41">
    <!-- 83 -->
    <g transform="translate(77.326531 78.525438) scale(0.1 -0.1)">
     <use xlink:href="#Helvetica-38"/>
     <use xlink:href="#Helvetica-33" x="55.615234"/>
    </g>
   </g>
   <g id="text_42">
    <!-- 51 -->
    <g transform="translate(93.444382 116.541438) scale(0.1 -0.1)">
     <use xlink:href="#Helvetica-35"/>
     <use xlink:href="#Helvetica-31" x="55.615234"/>
    </g>
   </g>
   <g id="text_43">
    <!-- 120 -->
    <g transform="translate(106.781765 34.569437) scale(0.1 -0.1)">
     <use xlink:href="#Helvetica-31"/>
     <use xlink:href="#Helvetica-32" x="55.615234"/>
     <use xlink:href="#Helvetica-30" x="111.230469"/>
    </g>
   </g>
   <g id="text_44">
    <!-- 79 -->
    <g transform="translate(125.680084 83.277437) scale(0.1 -0.1)">
     <use xlink:href="#Helvetica-37"/>
     <use xlink:href="#Helvetica-39" x="55.615234"/>
    </g>
   </g>
   <g id="text_45">
    <!-- 99 -->
    <g transform="translate(141.797935 59.517437) scale(0.1 -0.1)">
     <use xlink:href="#Helvetica-39"/>
     <use xlink:href="#Helvetica-39" x="55.615234"/>
    </g>
   </g>
   <g id="text_46">
    <!-- 84 -->
    <g transform="translate(157.915786 77.337437) scale(0.1 -0.1)">
     <use xlink:href="#Helvetica-38"/>
     <use xlink:href="#Helvetica-34" x="55.615234"/>
    </g>
   </g>
   <g id="text_47">
    <!-- 45 -->
    <g transform="translate(174.033637 123.669438) scale(0.1 -0.1)">
     <use xlink:href="#Helvetica-34"/>
     <use xlink:href="#Helvetica-35" x="55.615234"/>
    </g>
   </g>
   <g id="text_48">
    <!-- 41 -->
    <g transform="translate(190.151488 128.421438) scale(0.1 -0.1)">
     <use xlink:href="#Helvetica-34"/>
     <use xlink:href="#Helvetica-31" x="55.615234"/>
    </g>
   </g>
   <g id="text_49">
    <!-- 108 -->
    <g transform="translate(203.48887 48.825437) scale(0.1 -0.1)">
     <use xlink:href="#Helvetica-31"/>
     <use xlink:href="#Helvetica-30" x="55.615234"/>
     <use xlink:href="#Helvetica-38" x="111.230469"/>
    </g>
   </g>
   <g id="text_50">
    <!-- 31 -->
    <g transform="translate(222.38719 140.301438) scale(0.1 -0.1)">
     <use xlink:href="#Helvetica-33"/>
     <use xlink:href="#Helvetica-31" x="55.615234"/>
    </g>
   </g>
   <g id="text_51">
    <!-- 52 -->
    <g transform="translate(238.505041 115.353438) scale(0.1 -0.1)">
     <use xlink:href="#Helvetica-35"/>
     <use xlink:href="#Helvetica-32" x="55.615234"/>
    </g>
   </g>
   <g id="text_52">
    <!-- 137 -->
    <g transform="translate(251.842423 14.373437) scale(0.1 -0.1)">
     <use xlink:href="#Helvetica-31"/>
     <use xlink:href="#Helvetica-33" x="55.615234"/>
     <use xlink:href="#Helvetica-37" x="111.230469"/>
    </g>
   </g>
   <g id="text_53">
    <!-- 30 -->
    <g transform="translate(270.740743 141.489438) scale(0.1 -0.1)">
     <use xlink:href="#Helvetica-33"/>
     <use xlink:href="#Helvetica-30" x="55.615234"/>
    </g>
   </g>
   <g id="text_54">
    <!-- 97 -->
    <g transform="translate(286.858594 61.893438) scale(0.1 -0.1)">
     <use xlink:href="#Helvetica-39"/>
     <use xlink:href="#Helvetica-37" x="55.615234"/>
    </g>
   </g>
   <g id="text_55">
    <!-- 67 -->
    <g transform="translate(302.976445 97.533437) scale(0.1 -0.1)">
     <use xlink:href="#Helvetica-36"/>
     <use xlink:href="#Helvetica-37" x="55.615234"/>
    </g>
   </g>
   <g id="text_56">
    <!-- 101 -->
    <g transform="translate(316.313827 57.141437) scale(0.1 -0.1)">
     <use xlink:href="#Helvetica-31"/>
     <use xlink:href="#Helvetica-30" x="55.615234"/>
     <use xlink:href="#Helvetica-31" x="111.230469"/>
    </g>
   </g>
   <g id="text_57">
    <!-- 40 -->
    <g transform="translate(335.212147 129.609438) scale(0.1 -0.1)">
     <use xlink:href="#Helvetica-34"/>
     <use xlink:href="#Helvetica-30" x="55.615234"/>
    </g>
   </g>
   <g id="text_58">
    <!-- 105 -->
    <g transform="translate(348.549529 52.389437) scale(0.1 -0.1)">
     <use xlink:href="#Helvetica-31"/>
     <use xlink:href="#Helvetica-30" x="55.615234"/>
     <use xlink:href="#Helvetica-35" x="111.230469"/>
    </g>
   </g>
   <g id="text_59">
    <!-- 88 -->
    <g transform="translate(367.447849 72.585438) scale(0.1 -0.1)">
     <use xlink:href="#Helvetica-38"/>
     <use xlink:href="#Helvetica-38" x="55.615234"/>
    </g>
   </g>
   <g id="text_60">
    <!-- 109 -->
    <g transform="translate(380.785231 47.637438) scale(0.1 -0.1)">
     <use xlink:href="#Helvetica-31"/>
     <use xlink:href="#Helvetica-30" x="55.615234"/>
     <use xlink:href="#Helvetica-39" x="111.230469"/>
    </g>
   </g>
   <g id="text_61">
    <!-- 79 -->
    <g transform="translate(399.68355 83.277437) scale(0.1 -0.1)">
     <use xlink:href="#Helvetica-37"/>
     <use xlink:href="#Helvetica-39" x="55.615234"/>
    </g>
   </g>
   <g id="text_62">
    <!-- 50 -->
    <g transform="translate(415.801401 117.729438) scale(0.1 -0.1)">
     <use xlink:href="#Helvetica-35"/>
     <use xlink:href="#Helvetica-30" x="55.615234"/>
    </g>
   </g>
   <g id="text_63">
    <!-- 88 -->
    <g transform="translate(431.919252 72.585438) scale(0.1 -0.1)">
     <use xlink:href="#Helvetica-38"/>
     <use xlink:href="#Helvetica-38" x="55.615234"/>
    </g>
   </g>
   <g id="text_64">
    <!-- 110 -->
    <g transform="translate(445.256635 46.449438) scale(0.1 -0.1)">
     <use xlink:href="#Helvetica-31"/>
     <use xlink:href="#Helvetica-31" x="55.615234"/>
     <use xlink:href="#Helvetica-30" x="111.230469"/>
    </g>
   </g>
   <g id="text_65">
    <!-- 85 -->
    <g transform="translate(464.154954 76.149438) scale(0.1 -0.1)">
     <use xlink:href="#Helvetica-38"/>
     <use xlink:href="#Helvetica-35" x="55.615234"/>
    </g>
   </g>
   <g id="text_66">
    <!-- 90 -->
    <g transform="translate(480.272805 70.209438) scale(0.1 -0.1)">
     <use xlink:href="#Helvetica-39"/>
     <use xlink:href="#Helvetica-30" x="55.615234"/>
    </g>
   </g>
   <g id="text_67">
    <!-- 111 -->
    <g transform="translate(493.610187 45.261437) scale(0.1 -0.1)">
     <use xlink:href="#Helvetica-31"/>
     <use xlink:href="#Helvetica-31" x="55.615234"/>
     <use xlink:href="#Helvetica-31" x="111.230469"/>
    </g>
   </g>
   <g id="text_68">
    <!-- 66 -->
    <g transform="translate(512.508507 98.721438) scale(0.1 -0.1)">
     <use xlink:href="#Helvetica-36"/>
     <use xlink:href="#Helvetica-36" x="55.615234"/>
    </g>
   </g>
  </g>
 </g>
 <defs>
  <clipPath id="p640f84f22f">
   <rect x="55.269531" y="17.893812" width="474.3" height="166.32"/>
  </clipPath>
 </defs>
</svg>
